<?xml version="1.0" standalone="no"?>
<!DOCTYPE svg PUBLIC "-//W3C//DTD SVG 20010904//EN"
 "http://www.w3.org/TR/2001/REC-SVG-20010904/DTD/svg10.dtd">
<svg version="1.0" xmlns="http://www.w3.org/2000/svg"
 width="2480.000000pt" height="2480.000000pt" viewBox="0 0 2480.000000 2480.000000"
 preserveAspectRatio="xMidYMid meet">

<g transform="translate(0.000000,2480.000000) scale(0.100000,-0.100000)"
fill="#000000" stroke="none">

<path d="M7780 17799 c-127 -32 -152 -41 -252 -92 -215 -110 -375 -281 -469
-498 -70 -160 -71 -172 -76 -511 l-5 -307 39 -41 c60 -65 142 -74 211 -23 58
43 60 55 65 333 4 284 12 329 75 455 96 194 285 336 497 375 43 8 753 10 2445
8 2296 -3 2387 -4 2440 -22 30 -10 75 -28 100 -39 166 -77 318 -247 370 -416
24 -75 43 -225 38 -296 l-3 -50 -585 -6 c-615 -6 -635 -7 -775 -55 -293 -99
-543 -349 -636 -637 -55 -168 -52 -120 -56 -1139 l-4 -948 -855 0 c-921 0
-882 2 -930 -52 -44 -48 -45 -53 -44 -417 0 -192 -3 -352 -8 -355 -5 -3 -186
173 -403 390 -217 218 -411 404 -431 415 -34 17 -60 19 -322 19 -280 0 -340 5
-436 37 -214 70 -389 255 -454 478 -19 66 -21 104 -26 717 -5 633 -5 647 -26
675 -11 15 -40 38 -65 51 -71 37 -150 16 -197 -53 l-23 -33 4 -688 c3 -607 6
-696 20 -744 86 -283 259 -503 499 -634 185 -101 310 -126 648 -126 l245 0
530 -529 c467 -466 534 -530 567 -535 59 -11 112 9 152 56 l36 41 2 481 3 481
758 3 757 2 0 -67 c1 -328 100 -586 304 -788 136 -135 264 -208 476 -272 48
-14 144 -17 767 -22 l713 -6 522 -521 c288 -287 533 -527 545 -533 61 -31 149
-3 197 62 21 28 21 39 24 508 l3 479 22 5 c12 3 513 6 1112 8 1178 4 1093 0
1250 54 268 93 497 319 603 593 72 187 72 196 72 1475 0 1222 -2 1259 -54
1417 -99 304 -342 551 -641 653 -146 49 -123 48 -1067 52 -609 3 -899 1 -926
-7 -49 -13 -111 -78 -114 -118 -4 -82 14 -128 64 -164 l33 -23 905 -6 c1009
-7 941 -2 1096 -79 145 -73 268 -207 330 -360 54 -134 54 -130 54 -1365 0
-1300 2 -1262 -80 -1425 -83 -166 -234 -293 -420 -356 -52 -18 -120 -19 -1245
-24 -1180 -5 -1190 -5 -1230 -26 -25 -13 -47 -36 -62 -64 -23 -43 -23 -48 -23
-392 0 -191 -3 -348 -7 -348 -4 0 -190 182 -413 404 -342 342 -411 406 -445
415 -27 7 -267 11 -741 11 -665 0 -705 1 -778 20 -240 61 -431 251 -502 500
-17 61 -19 130 -22 1230 -3 863 0 1187 8 1250 32 229 173 429 375 530 156 79
52 73 1380 79 1137 6 1191 7 1217 25 43 28 68 77 68 130 0 58 -19 97 -67 133
l-36 28 -441 3 c-329 2 -442 6 -448 15 -4 7 -8 65 -8 129 0 273 -99 514 -291
707 -153 154 -302 232 -552 290 -34 8 -736 11 -2460 10 -2329 -1 -2415 -1
-2487 -20z"/>
<path d="M10540 12805 c-219 -40 -435 -156 -581 -312 -163 -174 -257 -377
-285 -613 -16 -139 -18 -425 -4 -541 32 -259 126 -454 308 -641 57 -58 80 -89
71 -92 -8 -3 -66 -23 -129 -45 -63 -21 -158 -54 -210 -71 -222 -76 -374 -157
-524 -281 -266 -220 -428 -496 -502 -854 -12 -60 -18 -161 -23 -400 l-6 -320
-790 -5 c-880 -6 -821 -1 -865 -73 -19 -31 -20 -56 -20 -748 l0 -716 23 -33
c12 -19 36 -41 52 -51 28 -17 299 -18 5331 -18 4681 -1 5304 1 5331 14 38 19
59 42 78 88 12 30 15 93 15 379 -1 380 -12 515 -55 674 -71 262 -180 449 -375
645 -177 177 -341 277 -620 373 -74 26 -166 59 -205 73 -38 13 -85 29 -102 34
-18 6 -33 15 -33 21 0 6 31 42 69 79 130 130 236 315 282 494 23 85 24 107 24
410 0 269 -3 331 -17 390 -54 219 -153 392 -310 541 -202 191 -449 288 -733
287 -278 -2 -518 -100 -722 -296 -142 -136 -243 -310 -294 -502 -23 -86 -24
-105 -24 -415 0 -238 4 -340 13 -380 52 -211 152 -391 294 -532 56 -55 80 -88
66 -88 -2 0 -68 -23 -148 -50 -80 -28 -177 -62 -215 -75 -303 -104 -505 -242
-718 -493 l-27 -32 -583 2 -582 3 -6 280 c-7 289 -11 350 -35 472 -85 437
-394 828 -809 1022 -61 29 -159 65 -375 138 -91 30 -169 59 -173 63 -5 4 25
41 65 81 163 162 263 354 302 578 21 123 22 548 2 663 -72 399 -339 709 -721
837 -154 51 -345 65 -505 36z m378 -330 c261 -72 471 -297 527 -566 21 -98 21
-510 0 -608 -60 -285 -282 -512 -563 -576 -109 -25 -281 -17 -387 18 -226 75
-403 253 -474 478 -50 157 -55 574 -10 734 77 273 314 490 584 536 69 11 259
2 323 -16z m5002 -1320 c36 -9 101 -33 146 -55 186 -90 314 -241 386 -455 22
-67 23 -82 23 -365 0 -280 -1 -298 -23 -365 -67 -205 -193 -357 -370 -448
-121 -62 -202 -82 -337 -82 -214 0 -386 74 -531 228 -82 87 -135 173 -172 282
l-27 80 0 305 0 305 27 80 c40 116 92 199 183 291 187 188 436 260 695 199z
m-4801 -791 c45 -14 83 -29 86 -34 2 -4 -101 -191 -230 -415 -129 -224 -235
-411 -235 -416 0 -18 -19 -9 -38 19 -40 57 -455 786 -456 801 -1 11 22 24 74
43 l75 27 322 0 c320 1 322 1 402 -25z m-869 -706 c177 -310 334 -578 347
-596 48 -64 136 -82 203 -41 45 28 51 36 175 254 13 22 65 112 115 200 51 88
117 203 148 255 30 52 62 109 72 125 9 17 52 91 95 165 42 74 85 149 95 165
22 38 38 37 166 -10 268 -98 431 -214 577 -410 53 -71 133 -215 150 -270 63
-206 59 -176 66 -520 3 -178 2 -326 -3 -333 -7 -10 -362 -12 -1740 -10 l-1731
3 -3 270 c-3 301 7 393 58 547 94 281 294 514 558 648 62 32 286 117 313 119
10 1 120 -181 339 -561z m6004 -657 c94 -33 245 -85 336 -116 295 -102 415
-170 566 -320 117 -116 201 -247 259 -401 59 -158 77 -306 73 -614 l-3 -235
-1742 -3 -1743 -2 0 257 c0 372 23 504 119 698 117 237 299 416 534 525 45 21
163 66 262 100 99 34 248 86 330 115 l150 53 344 1 343 1 172 -59z m-2474
-699 c0 -5 -11 -40 -25 -79 -57 -163 -75 -321 -75 -650 l0 -263 -3195 0 -3195
0 0 493 c0 272 3 497 7 500 9 10 6483 9 6483 -1z"/>
</g>
</svg>
