<?xml version="1.0" standalone="no"?>
<!DOCTYPE svg PUBLIC "-//W3C//DTD SVG 20010904//EN"
 "http://www.w3.org/TR/2001/REC-SVG-20010904/DTD/svg10.dtd">
<svg version="1.0" xmlns="http://www.w3.org/2000/svg"
 width="2480.000000pt" height="2480.000000pt" viewBox="0 0 2480.000000 2480.000000"
 preserveAspectRatio="xMidYMid meet">

<g transform="translate(0.000000,2480.000000) scale(0.100000,-0.100000)"
fill="#000000" stroke="none">
<path d="M12310 18430 c-191 -18 -353 -95 -491 -232 -162 -162 -239 -347 -239
-578 0 -140 23 -240 80 -357 98 -199 268 -349 475 -418 28 -10 53 -22 57 -29
4 -6 8 -252 8 -547 0 -403 -3 -538 -12 -547 -7 -7 -36 -12 -66 -12 -70 0 -282
-30 -402 -57 -199 -44 -193 -42 -375 -102 -393 -129 -762 -335 -1087 -608 -48
-40 -93 -73 -100 -73 -7 0 -184 171 -393 380 l-379 379 41 83 c74 150 98 261
90 415 -10 217 -88 394 -239 545 -173 173 -414 257 -660 230 -134 -15 -239
-51 -348 -120 -184 -118 -299 -279 -361 -507 -21 -74 -18 -314 4 -385 31 -99
60 -164 105 -235 224 -351 663 -476 1040 -297 l74 35 86 -85 c478 -469 675
-666 683 -680 7 -13 -5 -33 -51 -88 -208 -250 -411 -581 -521 -850 -16 -41
-34 -84 -40 -95 -20 -43 -100 -301 -125 -403 -43 -178 -83 -444 -84 -552 0
-38 -5 -71 -12 -78 -16 -16 -1049 -17 -1079 -2 -10 6 -19 21 -19 33 0 24 -25
97 -55 162 -99 214 -304 380 -547 445 -132 34 -350 25 -466 -21 -88 -35 -176
-85 -239 -136 -131 -106 -212 -225 -269 -394 -27 -78 -29 -94 -29 -239 1 -162
9 -209 56 -321 203 -482 823 -652 1242 -340 132 98 264 283 291 408 4 17 13
36 20 42 9 8 179 10 557 9 l544 -3 3 -45 c7 -127 63 -475 92 -575 5 -16 16
-57 26 -90 124 -446 370 -905 668 -1246 31 -35 55 -70 54 -76 -4 -17 -750
-763 -763 -763 -6 0 -40 15 -75 34 -322 171 -714 108 -973 -157 -235 -240
-297 -605 -156 -914 72 -158 220 -312 371 -387 111 -54 162 -70 286 -87 135
-19 296 7 430 68 424 193 604 701 395 1117 l-34 69 373 374 c205 206 381 379
391 384 15 8 29 1 74 -38 512 -441 1186 -725 1860 -782 56 -5 107 -12 112 -16
17 -10 15 -1084 -1 -1089 -135 -38 -208 -72 -305 -144 -100 -74 -180 -171
-238 -286 -62 -124 -85 -222 -85 -366 0 -144 23 -242 85 -366 109 -217 295
-365 540 -430 76 -20 278 -22 360 -4 140 31 268 99 377 199 355 327 358 862 7
1197 -79 75 -183 137 -292 175 l-82 28 -3 545 -2 545 42 5 c24 3 77 8 118 11
118 9 283 37 445 76 182 43 370 106 523 175 29 13 55 24 57 24 7 0 192 92 240
120 137 77 194 113 313 197 73 52 172 128 219 169 48 41 92 74 98 74 13 0 765
-752 765 -765 0 -6 -15 -40 -34 -75 -44 -83 -64 -141 -82 -243 -18 -103 -18
-161 0 -263 46 -258 210 -480 438 -592 120 -59 189 -79 313 -88 446 -32 826
296 870 751 7 80 -9 225 -35 305 -86 265 -295 469 -560 544 -192 54 -398 35
-578 -54 l-77 -38 -382 381 c-211 210 -383 390 -383 399 0 9 4 20 10 23 41 26
289 368 379 523 43 73 161 306 161 316 0 3 11 29 24 58 13 29 35 85 49 123 14
39 34 95 45 125 19 53 75 250 85 300 42 212 60 333 73 493 l6 77 548 0 548 0
18 -57 c75 -246 278 -457 517 -538 349 -118 738 13 941 318 98 148 136 272
136 454 0 260 -106 485 -303 639 -153 119 -314 174 -511 174 -224 0 -407 -74
-568 -228 -101 -96 -195 -258 -222 -384 l-6 -28 -549 0 -549 0 -7 78 c-14 178
-54 424 -91 562 -37 137 -84 286 -114 360 -10 25 -31 77 -46 115 -16 39 -61
134 -101 212 -116 228 -235 409 -405 615 -48 59 -88 111 -88 115 0 5 172 180
383 391 l383 383 90 -44 c130 -65 203 -82 359 -81 145 0 226 16 335 67 134 62
228 137 312 251 84 112 126 210 154 352 18 97 18 172 -2 274 -33 177 -104 312
-228 435 -160 158 -346 235 -571 235 -221 0 -414 -80 -571 -235 -125 -123
-193 -255 -229 -440 -19 -100 -19 -158 -1 -262 18 -98 34 -148 78 -237 l33
-66 -391 -391 -391 -391 -48 42 c-201 174 -397 306 -650 435 -409 211 -801
320 -1287 360 l-78 7 0 544 0 544 23 9 c12 5 42 15 67 22 119 35 230 99 323
188 341 324 341 859 1 1182 -179 169 -395 242 -644 219z m209 -356 c153 -45
281 -170 326 -321 19 -63 19 -201 0 -268 -55 -188 -250 -335 -447 -335 -170 0
-328 89 -412 232 -36 62 -66 170 -66 238 0 107 51 237 127 321 110 121 316
180 472 133z m-3682 -1529 c170 -50 298 -196 334 -378 44 -228 -123 -476 -360
-533 -220 -52 -452 68 -540 281 -28 67 -32 88 -33 170 -1 130 29 215 110 314
42 52 147 121 217 144 65 20 206 22 272 2z m7443 -27 c133 -65 232 -188 261
-326 61 -293 -166 -572 -464 -572 -257 1 -467 212 -467 469 0 88 11 135 47
210 33 66 121 163 179 197 89 52 140 65 259 61 103 -2 115 -5 185 -39z m-3525
-1164 c897 -111 1688 -616 2167 -1385 57 -90 188 -337 188 -353 0 -3 11 -29
24 -58 49 -107 107 -279 146 -433 136 -532 113 -1139 -62 -1660 -192 -573
-548 -1071 -1028 -1437 -83 -63 -236 -168 -245 -168 -3 0 -28 -15 -57 -33
-129 -82 -405 -205 -592 -263 -535 -168 -1042 -186 -1606 -58 -36 8 -76 19
-90 23 -14 5 -59 19 -100 31 -351 104 -734 316 -1040 576 -297 252 -553 580
-725 929 -97 198 -102 208 -148 340 -180 520 -218 1018 -116 1560 27 145 83
355 119 440 4 11 14 36 20 55 52 145 148 338 250 505 237 387 593 739 990 980
89 54 339 185 354 185 3 0 25 8 49 19 78 34 102 43 202 76 116 39 276 81 361
96 187 32 263 42 384 49 173 9 402 3 555 -16z m-5435 -2500 c147 -50 256 -160
305 -309 33 -102 33 -182 0 -282 -68 -200 -240 -327 -445 -326 -136 0 -239 42
-335 138 -94 94 -135 194 -135 330 0 136 41 236 135 330 76 76 162 120 275
139 41 7 152 -4 200 -20z m10439 -4 c79 -28 131 -63 188 -122 239 -253 143
-643 -189 -770 -82 -31 -222 -28 -312 6 -191 73 -306 238 -306 441 0 239 164
427 410 469 46 8 157 -5 209 -24z m-8948 -3674 c237 -57 404 -305 360 -533
-36 -182 -164 -328 -334 -378 -68 -20 -208 -18 -272 3 -182 62 -310 218 -328
397 -15 147 39 291 146 392 123 114 273 156 428 119z m7381 -2 c142 -36 249
-125 314 -259 37 -78 38 -83 39 -190 0 -160 -34 -243 -142 -346 -94 -90 -191
-129 -323 -129 -138 0 -250 49 -343 149 -245 265 -121 678 233 777 63 17 152
17 222 -2z m-3661 -1535 c80 -26 120 -50 187 -113 97 -91 142 -197 142 -336 0
-136 -43 -239 -137 -333 -178 -178 -460 -184 -649 -14 -89 81 -154 225 -154
342 0 207 151 405 350 460 74 20 188 18 261 -6z"/>
<path d="M12345 14853 c-11 -3 -24 -9 -30 -13 -5 -4 -32 -19 -58 -34 -27 -15
-138 -78 -247 -141 -109 -63 -220 -126 -247 -141 -26 -15 -60 -35 -75 -45 -14
-11 -29 -19 -32 -19 -4 0 -23 -11 -44 -23 -38 -25 -402 -235 -489 -283 -26
-15 -97 -56 -158 -92 -60 -35 -141 -82 -180 -105 -38 -22 -91 -53 -118 -69
-26 -15 -50 -28 -52 -28 -3 0 -24 -12 -46 -26 -23 -14 -62 -37 -87 -51 -161
-89 -186 -109 -214 -163 l-28 -54 0 -1161 0 -1161 28 -54 c28 -54 53 -74 214
-163 25 -14 64 -37 87 -51 22 -14 43 -26 46 -26 2 0 26 -13 52 -28 27 -16 80
-47 118 -69 39 -23 120 -70 180 -105 61 -36 132 -77 158 -92 87 -48 451 -258
489 -283 21 -12 40 -23 44 -23 3 0 18 -8 32 -19 15 -10 49 -30 75 -45 27 -15
138 -78 247 -141 109 -63 220 -126 247 -141 26 -15 54 -32 62 -38 7 -6 39 -11
70 -11 51 0 67 6 161 60 57 33 125 72 150 86 25 14 135 78 245 141 110 64 216
124 235 135 19 11 89 52 155 90 317 184 453 262 490 283 22 12 81 46 130 75
50 29 106 62 125 72 19 11 80 46 135 78 55 32 122 70 148 84 26 14 69 42 95
61 88 67 81 -47 81 1285 0 1332 7 1218 -81 1285 -26 19 -64 44 -85 55 -21 11
-93 53 -161 93 -68 39 -125 72 -127 72 -1 0 -60 34 -130 75 -69 41 -128 75
-130 75 -2 0 -52 28 -112 63 -252 148 -491 286 -528 307 -22 12 -130 74 -240
138 -110 63 -220 127 -245 141 -25 14 -91 52 -146 83 -98 57 -159 75 -209 61z
m105 -398 c22 -14 42 -25 45 -25 2 0 28 -15 57 -33 29 -19 60 -37 68 -40 8 -4
29 -15 45 -26 17 -10 99 -57 183 -105 83 -49 152 -93 152 -100 0 -7 -19 -22
-42 -34 -24 -12 -61 -32 -83 -45 -88 -52 -484 -282 -543 -314 -26 -15 -91 -53
-145 -85 -55 -32 -101 -58 -103 -58 -2 0 -21 -11 -42 -23 -37 -24 -265 -156
-352 -205 -25 -14 -88 -50 -140 -81 -52 -31 -111 -65 -131 -75 l-36 -19 -112
67 c-62 36 -115 66 -117 66 -2 0 -23 11 -45 26 -22 14 -57 34 -77 46 -218 122
-252 143 -252 158 0 7 22 21 150 93 19 11 76 43 125 72 50 29 108 63 130 75
22 12 112 64 200 115 88 51 205 118 260 150 55 31 105 61 110 65 6 4 32 19 58
34 27 15 138 78 247 141 109 63 220 126 247 141 26 15 52 30 58 35 16 15 44
10 85 -16z m996 -575 c35 -22 66 -40 69 -40 2 0 34 -18 70 -40 36 -22 67 -40
70 -40 3 0 29 -16 59 -35 30 -19 57 -35 60 -35 4 0 226 -129 235 -137 10 -8
-30 -34 -189 -125 -91 -53 -210 -121 -265 -153 -95 -55 -194 -112 -267 -153
-18 -11 -78 -45 -133 -77 -294 -172 -346 -201 -407 -236 -37 -21 -84 -48 -105
-60 -21 -12 -83 -48 -139 -80 -101 -59 -122 -67 -139 -50 -6 5 -100 61 -210
124 -110 63 -235 135 -278 161 -43 25 -82 46 -85 46 -4 0 -18 9 -31 19 l-24
19 39 24 c21 14 66 40 99 58 33 18 104 60 158 92 55 32 100 58 102 58 2 0 60
34 130 75 69 41 128 75 130 75 2 0 54 30 117 66 62 36 142 83 178 104 36 21
115 67 175 102 61 36 135 79 165 95 30 17 114 65 185 107 72 41 139 75 149 76
10 0 47 -18 82 -40z m-2808 -659 c23 -15 342 -201 467 -271 57 -32 410 -237
468 -271 26 -16 50 -29 53 -29 3 0 18 -8 32 -19 15 -10 50 -31 77 -46 128 -70
452 -260 468 -273 16 -14 17 -72 17 -949 0 -669 -3 -933 -11 -933 -6 0 -23 8
-37 18 -24 17 -254 150 -351 204 -20 11 -56 32 -81 47 -25 16 -110 65 -190
111 -80 46 -194 112 -253 147 -60 35 -110 63 -112 63 -2 0 -61 34 -130 75 -70
41 -128 75 -130 75 -2 0 -47 26 -102 58 -54 32 -125 74 -158 92 -33 18 -63 38
-67 44 -13 19 -10 1876 3 1876 6 0 23 -8 37 -19z m3560 -902 c1 -503 0 -924
-3 -936 -5 -21 -39 -45 -170 -118 -22 -13 -86 -50 -143 -84 -57 -34 -106 -61
-108 -61 -3 0 -30 -16 -60 -35 -30 -19 -57 -35 -59 -35 -3 0 -22 -11 -43 -23
-20 -13 -57 -35 -82 -49 -25 -14 -112 -65 -195 -113 -82 -48 -170 -98 -193
-111 -24 -14 -135 -77 -245 -141 -111 -64 -213 -123 -227 -130 -14 -8 -40 -23
-59 -34 -20 -12 -37 -16 -40 -11 -3 6 -5 429 -3 940 l2 930 43 25 c23 14 60
35 82 47 22 12 130 74 240 138 110 64 283 164 385 222 102 59 230 133 285 165
186 107 350 202 450 260 55 31 104 61 110 66 5 5 14 8 20 6 7 -3 11 -298 13
-918z"/>
</g>
</svg>
