<?xml version="1.0" standalone="no"?>
<!DOCTYPE svg PUBLIC "-//W3C//DTD SVG 20010904//EN"
 "http://www.w3.org/TR/2001/REC-SVG-20010904/DTD/svg10.dtd">
<svg version="1.0" xmlns="http://www.w3.org/2000/svg"
 width="2480.000000pt" height="2480.000000pt" viewBox="0 0 2480.000000 2480.000000"
 preserveAspectRatio="xMidYMid meet">

<g transform="translate(0.000000,2480.000000) scale(0.100000,-0.100000)"
fill="#000000" stroke="none">
<path d="M16350 17421 c-114 -37 -138 -57 -448 -365 l-303 -301 -3822 -5
-3822 -5 -85 -30 c-162 -58 -283 -142 -384 -269 -77 -97 -117 -180 -151 -316
-21 -80 -21 -6466 -1 -6550 32 -135 108 -274 204 -373 78 -81 217 -171 307
-199 141 -44 47 -42 1674 -45 844 -2 1536 -5 1538 -7 2 -2 -1 -16 -8 -32 -17
-42 -23 -58 -67 -174 -95 -249 -135 -345 -145 -352 -7 -4 -102 -8 -212 -8
-222 0 -272 -8 -366 -59 -116 -64 -215 -200 -239 -330 -23 -124 -7 -268 40
-368 56 -121 212 -244 329 -260 22 -3 41 -10 41 -14 0 -5 858 -9 1960 -9 1133
0 1960 4 1960 9 0 5 19 12 43 15 167 25 338 203 367 382 41 252 -50 472 -239
575 -94 51 -144 59 -366 59 -110 0 -205 4 -212 8 -10 7 -42 83 -155 377 -27
72 -55 140 -61 152 -6 13 -8 25 -6 28 3 2 696 6 1540 8 1627 3 1533 1 1674 45
94 29 232 120 310 203 99 105 160 217 195 358 19 74 20 150 20 3286 0 3164 -1
3211 -20 3288 -51 203 -190 384 -382 499 -38 22 -68 44 -68 50 0 5 10 39 22
76 31 94 30 242 -2 327 -60 158 -193 279 -359 329 -75 22 -229 21 -301 -3z
m221 -303 c81 -24 149 -107 149 -183 0 -95 60 -30 -1356 -1447 -734 -733
-1338 -1334 -1342 -1336 -10 -3 -276 264 -279 281 -1 7 590 607 1315 1334
1040 1044 1326 1327 1362 1343 51 22 96 25 151 8z m-1562 -935 c-135 -137
-560 -564 -944 -951 -385 -386 -703 -708 -706 -715 -4 -7 -18 -46 -32 -87 -25
-75 -33 -98 -87 -240 -170 -448 -194 -517 -194 -567 -1 -58 19 -93 75 -131 47
-32 104 -26 249 26 394 141 650 229 690 237 30 6 231 203 1366 1337 1274 1273
1333 1330 1360 1324 164 -41 317 -203 353 -374 8 -38 11 -838 11 -2816 l0
-2764 -22 -6 c-30 -8 -9462 -8 -9482 0 -15 6 -16 259 -16 2775 0 1982 3 2783
11 2821 35 166 157 303 322 359 49 17 238 18 3672 18 l3620 1 -246 -247z
m-1306 -2204 c-13 -13 -163 -68 -207 -76 -26 -5 -28 -3 -21 13 4 11 20 53 35
94 16 41 33 88 40 104 l11 30 77 -77 c58 -58 74 -79 65 -88z m3445 -4049 c3
-240 -8 -314 -64 -406 -70 -117 -163 -190 -285 -224 -73 -20 -83 -20 -4407
-20 -3912 0 -4340 2 -4396 16 -174 45 -310 182 -351 356 -15 65 -22 467 -8
481 3 4 2144 6 4757 5 l4751 -3 3 -205z m-3771 -982 c5 -7 24 -49 41 -93 107
-277 172 -448 172 -456 0 -5 -483 -9 -1200 -9 -717 0 -1200 4 -1200 9 0 8 65
179 172 456 17 44 36 86 41 93 7 9 217 12 987 12 770 0 980 -3 987 -12z m1010
-905 c46 -33 63 -80 63 -166 0 -95 -22 -143 -80 -176 l-38 -21 -1942 0 -1942
0 -38 21 c-58 33 -80 81 -80 176 0 89 18 135 66 168 29 20 45 20 1998 19 1918
-2 1969 -2 1993 -21z"/>
<path d="M9800 16093 c-79 -30 -109 -93 -110 -225 l0 -97 -373 -3 -374 -3 -37
-29 c-91 -69 -87 -190 7 -260 21 -15 47 -22 103 -24 78 -4 90 -13 50 -34 -47
-25 -228 -182 -303 -262 -41 -45 -105 -121 -142 -170 l-66 -88 -5 90 c-4 71
-10 97 -26 118 -52 71 -130 92 -202 55 -79 -40 -76 -27 -82 -461 l-5 -385
-110 -5 c-123 -6 -159 -19 -197 -72 -23 -33 -23 -34 -26 -395 -2 -233 1 -376
8 -402 6 -24 25 -52 50 -75 l40 -36 101 0 c55 0 109 -5 120 -10 18 -10 19 -25
19 -385 0 -372 0 -376 22 -409 44 -67 119 -90 190 -58 69 30 92 70 98 169 l5
83 64 -88 c79 -106 280 -309 379 -382 39 -29 72 -57 72 -61 0 -5 -26 -9 -58
-9 -104 0 -162 -50 -169 -144 -5 -58 17 -107 61 -141 26 -19 45 -20 404 -25
l377 -5 5 -105 c3 -58 11 -117 17 -131 19 -42 78 -87 125 -94 24 -3 198 -5
388 -3 385 3 380 3 430 75 21 30 24 48 26 139 2 57 6 109 9 114 4 6 143 10
376 10 405 0 402 0 452 60 63 74 36 189 -55 236 -16 8 -56 14 -98 14 -72 0
-87 10 -47 31 108 58 374 318 470 461 13 20 27 34 31 31 3 -4 6 -32 6 -63 0
-99 38 -157 120 -181 65 -20 153 24 183 91 8 17 14 150 17 400 l5 375 117 5
c98 4 121 8 144 26 63 47 62 42 63 457 1 393 1 398 -43 445 -35 40 -80 52
-187 52 l-98 0 -3 378 -3 378 -27 41 c-34 52 -86 77 -146 70 -86 -10 -142 -76
-142 -169 0 -33 -4 -58 -9 -56 -4 2 -44 48 -88 103 -96 119 -216 237 -332 326
l-84 64 64 6 c98 8 127 26 163 96 34 67 4 157 -64 197 -33 20 -52 21 -412 24
-208 2 -378 6 -378 10 -1 4 -2 52 -3 108 -4 118 -20 156 -83 191 -38 22 -44
23 -409 22 -203 0 -377 -3 -385 -6z m560 -483 l0 -170 -165 0 -165 0 0 58 c0
31 -5 100 -12 153 -6 52 -9 103 -5 112 6 15 27 17 177 17 l170 0 0 -170z m415
-245 c421 -152 794 -522 959 -952 20 -51 36 -95 36 -98 0 -3 -38 -5 -84 -5
-94 0 -131 -17 -173 -79 -23 -34 -23 -35 -23 -422 l0 -389 43 -45 44 -45 86 0
c47 0 88 -4 91 -9 7 -11 -40 -133 -93 -241 -168 -342 -488 -636 -858 -789
-120 -49 -117 -50 -125 47 -5 67 -12 90 -32 117 -49 64 -68 66 -481 63 -415
-3 -401 -1 -451 -80 -20 -31 -24 -51 -24 -111 0 -41 -3 -76 -6 -79 -3 -3 -44
10 -91 29 -246 99 -414 212 -593 399 -165 173 -266 332 -355 562 -34 88 -32
92 67 92 85 0 128 23 157 85 20 43 21 61 21 400 0 403 -2 414 -73 466 -35 26
-48 29 -114 29 -41 0 -73 4 -73 10 0 5 11 40 25 77 114 303 338 588 610 775
48 32 193 118 200 118 2 0 32 13 67 29 62 28 144 61 153 61 3 0 5 -28 5 -63 0
-116 59 -189 163 -202 29 -4 201 -5 382 -3 376 3 385 5 430 83 20 34 25 55 25
112 0 56 5 83 14 83 1 0 33 -11 71 -25z m-2210 -1399 c3 -11 4 -86 3 -166 l-3
-145 -160 -8 c-88 -4 -166 -5 -172 -2 -10 3 -13 47 -13 174 l0 170 170 -1
c165 0 170 -1 175 -22z m3587 11 c4 -7 8 -80 8 -163 0 -117 -3 -154 -14 -163
-10 -8 -58 -9 -170 -5 l-156 7 0 162 c0 89 2 164 4 166 3 2 76 5 163 6 111 1
160 -2 165 -10z m-1798 -1799 c3 -13 4 -90 3 -173 l-2 -150 -164 -3 c-91 -1
-168 1 -173 6 -4 4 -5 83 -1 175 l6 167 163 0 c162 0 164 0 168 -22z"/>
<path d="M9985 14861 c-82 -43 -300 -154 -483 -247 -315 -159 -335 -171 -358
-210 l-24 -42 2 -549 3 -549 27 -41 c23 -36 56 -54 330 -193 166 -84 308 -156
313 -160 6 -4 87 -46 181 -94 125 -63 180 -86 208 -86 30 0 143 52 520 241
264 133 492 251 504 263 52 47 51 35 53 624 1 415 -2 556 -11 573 -21 41 -53
70 -100 91 -25 11 -242 119 -483 239 -391 195 -443 219 -485 218 -38 0 -75
-15 -197 -78z m475 -391 c166 -83 260 -135 260 -145 0 -8 -4 -15 -9 -15 -7 0
-150 -68 -476 -226 l-50 -24 -263 130 c-145 72 -262 135 -260 141 5 14 496
267 521 268 9 1 134 -58 277 -129z m-723 -550 l283 -140 0 -330 c0 -182 -4
-330 -8 -330 -9 0 -513 253 -549 276 l-23 14 0 325 c0 179 3 325 7 325 4 0
134 -63 290 -140z m1211 -179 c1 -172 -1 -318 -5 -325 -5 -8 -138 -79 -298
-159 -204 -103 -292 -142 -297 -134 -9 14 -11 618 -2 642 4 9 81 52 173 96 91
44 220 107 286 139 66 33 125 58 130 56 6 -2 11 -118 13 -315z"/>
<path d="M15484 14375 c-67 -29 -104 -104 -90 -180 9 -47 59 -102 104 -115 41
-11 1207 -14 1262 -3 51 10 107 72 115 127 10 66 -24 132 -84 163 l-44 23
-616 -1 c-498 0 -622 -3 -647 -14z"/>
<path d="M14275 13618 c-126 -44 -142 -221 -25 -287 l38 -21 1231 0 c1355 0
1274 -4 1325 62 58 77 35 188 -49 232 -40 21 -46 21 -1265 23 -838 1 -1234 -2
-1255 -9z"/>
<path d="M14254 12861 c-54 -33 -84 -82 -84 -135 0 -58 19 -97 67 -133 l36
-28 1246 0 c1231 0 1246 0 1280 20 50 29 84 98 77 154 -7 53 -42 102 -89 125
-32 15 -146 16 -1269 16 -1196 0 -1234 -1 -1264 -19z"/>
<path d="M11890 12057 c-30 -16 -51 -37 -67 -67 l-23 -43 0 -487 c0 -543 -1
-535 67 -587 l36 -28 2436 0 2436 0 33 23 c68 49 67 37 70 547 2 253 0 484 -3
513 -8 66 -54 123 -113 140 -30 9 -635 12 -2434 12 l-2395 0 -43 -23z m420
-437 c4 -111 8 -141 25 -168 30 -50 73 -72 138 -72 49 0 61 4 92 31 20 18 41
41 48 53 6 12 14 81 17 156 l5 135 145 0 145 0 6 -85 c6 -95 21 -127 74 -160
38 -24 113 -27 153 -6 64 33 92 92 92 193 l0 64 153 -3 152 -3 6 -130 c3 -71
11 -142 17 -156 6 -15 28 -40 49 -58 32 -26 46 -31 93 -31 66 0 111 24 137 72
14 25 19 64 23 168 l5 135 145 0 145 0 7 -84 c6 -72 11 -89 36 -120 41 -50 68
-62 132 -58 100 6 141 57 150 182 l5 80 145 0 145 0 5 -135 c4 -116 8 -140 27
-170 30 -49 71 -70 133 -70 62 0 103 21 133 70 19 30 23 54 27 170 l5 135 145
0 145 0 5 -80 c8 -126 59 -185 160 -185 45 0 72 11 109 44 33 30 43 60 50 146
l6 75 150 0 150 0 6 -130 c3 -71 10 -142 16 -156 6 -15 29 -40 50 -58 32 -26
46 -31 91 -31 63 0 102 18 134 62 21 30 23 47 28 173 l5 140 90 0 90 0 3 -297
2 -298 -2220 0 -2220 0 0 293 c0 162 3 297 7 301 4 4 46 5 93 4 l85 -3 5 -135z"/>
<path d="M11783 9849 c-45 -22 -79 -67 -89 -118 -9 -46 20 -116 64 -149 l35
-27 596 0 596 0 34 24 c98 70 85 219 -24 270 -44 21 -57 21 -607 21 -551 0
-564 0 -605 -21z"/>
</g>
</svg>
