<?xml version="1.0" encoding="UTF-8"?>
<svg id="Livello_1" data-name="Livello 1" xmlns="http://www.w3.org/2000/svg" viewBox="0 0 1000 1000">
  <defs>
    <style>
      .cls-1 {
        fill: #fff700;
        stroke-width: 0px;
      }
    </style>
  </defs>
  <g>
    <path class="cls-1" d="m232.62,746.98c0,11.74-2.21,21.73-6.65,29.97-4.44,8.24-10.46,14.51-18.08,18.84-7.62,4.32-16.19,6.49-25.68,6.49s-18.16-2.17-25.76-6.53c-7.6-4.34-13.61-10.63-18.03-18.86-4.42-8.24-6.63-18.21-6.63-29.91s2.21-21.73,6.63-29.97c4.42-8.24,10.43-14.51,18.03-18.84,7.6-4.32,16.19-6.49,25.76-6.49s18.06,2.17,25.68,6.49c7.62,4.34,13.64,10.61,18.08,18.84,4.44,8.24,6.65,18.23,6.65,29.97Zm-23.07,0c0-7.6-1.13-14.01-3.39-19.24-2.26-5.21-5.44-9.17-9.54-11.88-4.1-2.69-8.89-4.04-14.4-4.04s-10.31,1.35-14.41,4.04c-4.1,2.71-7.28,6.67-9.54,11.88-2.26,5.23-3.38,11.64-3.38,19.24s1.12,14.01,3.38,19.24c2.26,5.21,5.44,9.17,9.54,11.88,4.1,2.69,8.9,4.04,14.41,4.04s10.3-1.35,14.4-4.04c4.1-2.71,7.28-6.67,9.54-11.88,2.26-5.23,3.39-11.64,3.39-19.24Z"/>
    <path class="cls-1" d="m249.02,800.81v-80.73h21.71v14.07h.85c1.47-4.99,3.94-8.79,7.41-11.36,3.46-2.59,7.46-3.88,11.98-3.88,1.12,0,2.33.08,3.63.22,1.29.14,2.43.34,3.41.58v19.88c-1.05-.32-2.51-.6-4.36-.86-1.86-.24-3.56-.36-5.1-.36-3.29,0-6.23.7-8.8,2.13-2.58,1.41-4.61,3.38-6.1,5.91-1.48,2.53-2.23,5.43-2.23,8.72v45.69h-22.4Z"/>
    <path class="cls-1" d="m320.77,709.65c-3.33,0-6.18-1.09-8.55-3.32-2.37-2.23-3.54-4.89-3.54-8.02s1.17-5.73,3.54-7.96c2.37-2.23,5.21-3.34,8.55-3.34s6.18,1.11,8.54,3.34c2.37,2.23,3.55,4.88,3.55,7.96s-1.18,5.79-3.55,8.02c-2.36,2.23-5.21,3.32-8.54,3.32Zm-11.25,91.15v-80.73h22.4v80.73h-22.4Z"/>
    <path class="cls-1" d="m386.15,832.76c-7.25,0-13.46-.99-18.63-2.96-5.16-1.99-9.27-4.68-12.33-8.08-3.04-3.38-5.02-7.2-5.94-11.46l20.71-2.79c.63,1.61,1.63,3.12,2.99,4.54,1.36,1.39,3.18,2.53,5.44,3.38s5.01,1.29,8.28,1.29c4.87,0,8.89-1.19,12.06-3.56,3.17-2.35,4.77-6.31,4.77-11.84v-14.78h-.96c-.98,2.25-2.45,4.38-4.41,6.37-1.97,1.99-4.49,3.62-7.57,4.89-3.08,1.25-6.77,1.89-11.04,1.89-6.06,0-11.57-1.41-16.53-4.24-4.96-2.83-8.9-7.14-11.83-12.97-2.93-5.83-4.39-13.23-4.39-22.17s1.49-16.77,4.47-22.9c2.97-6.15,6.94-10.73,11.91-13.79,4.95-3.04,10.4-4.56,16.32-4.56,4.53,0,8.31.76,11.35,2.29,3.05,1.51,5.51,3.4,7.39,5.67,1.87,2.25,3.31,4.48,4.33,6.65h.85v-13.55h22.24v81.52c0,6.86-1.68,12.62-5.04,17.23-3.37,4.64-8.02,8.1-13.96,10.43-5.94,2.35-12.76,3.5-20.48,3.5Zm.48-49.92c3.6,0,6.67-.92,9.17-2.71,2.5-1.81,4.43-4.4,5.78-7.78,1.34-3.38,2.02-7.44,2.02-12.18s-.67-8.83-2-12.32c-1.33-3.5-3.25-6.21-5.78-8.14-2.52-1.91-5.59-2.89-9.19-2.89s-6.79.99-9.3,2.96c-2.53,1.99-4.44,4.74-5.73,8.24-1.3,3.5-1.95,7.54-1.95,12.14s.66,8.68,1.97,12.06,3.22,5.99,5.73,7.84c2.51,1.83,5.6,2.77,9.28,2.77Z"/>
    <path class="cls-1" d="m454.75,709.65c-3.33,0-6.18-1.09-8.55-3.32-2.37-2.23-3.54-4.89-3.54-8.02s1.17-5.73,3.54-7.96c2.37-2.23,5.21-3.34,8.55-3.34s6.18,1.11,8.54,3.34c2.37,2.23,3.55,4.88,3.55,7.96s-1.18,5.79-3.55,8.02c-2.36,2.23-5.21,3.32-8.54,3.32Zm-11.25,91.15v-80.73h22.4v80.73h-22.4Z"/>
    <path class="cls-1" d="m506.15,754.13v46.68h-22.4v-80.73h21.34v14.23h.95c1.79-4.7,4.79-8.42,8.99-11.16,4.2-2.75,9.3-4.12,15.29-4.12,5.61,0,10.5,1.21,14.66,3.68,4.17,2.45,7.41,5.95,9.72,10.49,2.32,4.54,3.47,9.93,3.47,16.22v51.4h-22.39v-47.42c.03-4.93-1.23-8.79-3.79-11.58-2.56-2.79-6.08-4.18-10.57-4.18-3.01,0-5.67.64-7.96,1.95-2.3,1.29-4.09,3.16-5.36,5.65-1.28,2.47-1.94,5.43-1.97,8.89Z"/>
    <path class="cls-1" d="m598.81,802.34c-5.15,0-9.74-.92-13.77-2.71-4.03-1.81-7.21-4.5-9.54-8.06-2.33-3.54-3.49-8-3.49-13.31,0-4.5.82-8.26,2.47-11.3,1.65-3.04,3.89-5.51,6.73-7.36,2.85-1.85,6.08-3.26,9.7-4.2,3.63-.96,7.44-1.61,11.43-2.01,4.7-.48,8.48-.96,11.35-1.39,2.88-.44,4.96-1.09,6.26-1.97s1.95-2.17,1.95-3.88v-.32c0-3.32-1.04-5.91-3.13-7.72-2.08-1.83-5.03-2.75-8.85-2.75-4.03,0-7.23.9-9.62,2.67-2.38,1.77-3.96,3.98-4.73,6.65l-20.71-1.69c1.05-4.89,3.11-9.15,6.2-12.73,3.08-3.6,7.07-6.37,11.96-8.32,4.89-1.93,10.56-2.91,17.01-2.91,4.48,0,8.78.52,12.9,1.57,4.11,1.05,7.77,2.69,10.98,4.89,3.2,2.21,5.73,5.03,7.59,8.48,1.86,3.46,2.79,7.58,2.79,12.38v54.46h-21.23v-11.2h-.64c-1.29,2.53-3.02,4.76-5.2,6.67-2.17,1.91-4.78,3.38-7.83,4.46-3.04,1.07-6.57,1.61-10.57,1.61Zm6.42-15.46c3.29,0,6.2-.66,8.73-1.97,2.52-1.31,4.5-3.08,5.94-5.33,1.43-2.25,2.15-4.8,2.15-7.62v-8.58c-.7.46-1.65.88-2.87,1.23-1.2.38-2.57.72-4.07.99-1.51.3-3.01.58-4.52.8-1.51.24-2.88.44-4.1.6-2.64.4-4.92,1.01-6.89,1.85-1.96.84-3.48,1.97-4.57,3.38-1.08,1.43-1.63,3.18-1.63,5.29,0,3.04,1.11,5.37,3.33,6.96,2.23,1.59,5.06,2.39,8.5,2.39Z"/>
    <path class="cls-1" d="m684.08,693.16v107.65h-22.4v-107.65h22.4Z"/>
    <path class="cls-1" d="m713.19,709.65c-3.33,0-6.18-1.09-8.55-3.32-2.37-2.23-3.54-4.89-3.54-8.02s1.17-5.73,3.54-7.96c2.37-2.23,5.21-3.34,8.55-3.34s6.18,1.11,8.54,3.34c2.37,2.23,3.55,4.88,3.55,7.96s-1.18,5.79-3.55,8.02c-2.36,2.23-5.21,3.32-8.54,3.32Zm-11.25,91.15v-80.73h22.4v80.73h-22.4Z"/>
    <path class="cls-1" d="m785.15,720.08v16.81h-48.62v-16.81h48.62Zm-37.59-19.36h22.4v75.27c0,2.07.31,3.68.95,4.82.63,1.13,1.51,1.93,2.66,2.39,1.13.46,2.46.68,3.96.68,1.05,0,2.11-.08,3.15-.28,1.05-.2,1.86-.34,2.42-.46l3.52,16.67c-1.11.34-2.7.76-4.73,1.23s-4.51.76-7.41.86c-5.39.22-10.12-.5-14.17-2.15-4.05-1.65-7.19-4.2-9.43-7.68-2.25-3.46-3.35-7.84-3.31-13.13v-78.22Z"/>
    <path class="cls-1" d="m822.73,802.34c-5.15,0-9.74-.92-13.77-2.71-4.03-1.81-7.21-4.5-9.54-8.06-2.33-3.54-3.49-8-3.49-13.31,0-4.5.82-8.26,2.47-11.3,1.65-3.04,3.89-5.51,6.73-7.36,2.85-1.85,6.08-3.26,9.7-4.2,3.63-.96,7.44-1.61,11.43-2.01,4.7-.48,8.48-.96,11.35-1.39,2.88-.44,4.96-1.09,6.26-1.97s1.95-2.17,1.95-3.88v-.32c0-3.32-1.04-5.91-3.13-7.72-2.08-1.83-5.03-2.75-8.85-2.75-4.03,0-7.23.9-9.62,2.67-2.38,1.77-3.96,3.98-4.73,6.65l-20.71-1.69c1.05-4.89,3.11-9.15,6.2-12.73,3.08-3.6,7.07-6.37,11.96-8.32,4.89-1.93,10.56-2.91,17.01-2.91,4.48,0,8.78.52,12.9,1.57,4.11,1.05,7.77,2.69,10.98,4.89,3.2,2.21,5.73,5.03,7.59,8.48,1.86,3.46,2.79,7.58,2.79,12.38v54.46h-21.23v-11.2h-.64c-1.29,2.53-3.02,4.76-5.2,6.67-2.17,1.91-4.78,3.38-7.83,4.46-3.04,1.07-6.57,1.61-10.57,1.61Zm4.26-92.68l-16.03-23.9h20.65l11.19,23.9h-15.82Zm2.16,77.22c3.29,0,6.2-.66,8.73-1.97,2.52-1.31,4.5-3.08,5.94-5.33,1.43-2.25,2.15-4.8,2.15-7.62v-8.58c-.7.46-1.65.88-2.87,1.23-1.2.38-2.57.72-4.07.99-1.51.3-3.01.58-4.52.8-1.51.24-2.88.44-4.1.6-2.64.4-4.92,1.01-6.89,1.85-1.96.84-3.48,1.97-4.57,3.38-1.08,1.43-1.63,3.18-1.63,5.29,0,3.04,1.11,5.37,3.33,6.96,2.23,1.59,5.06,2.39,8.5,2.39Z"/>
  </g>
  <g>
    <path class="cls-1" d="m342.11,386.5c-.1,0-.19.02-.29.02v-.03c-14.08-.11-26.8-.19-40.87.04-6.82.11-10.93,5.08-10.6,11.86.29,5.96,4.77,10.06,11.5,10.12,12.73.11,28.43-.26,41.15-.02,6.82-.11,10.93-5.08,10.6-11.86-.29-5.96-4.77-10.06-11.5-10.12Z"/>
    <path class="cls-1" d="m590.9,274.77c-30.87-27.26-67.11-38.9-108.01-33.68-33.66,4.29-62.12,19.58-84.59,45.08-26.49,30.07-38.33,65.38-34.19,105.33,3.15,30.46,15.96,56.81,37.11,79.08,15.26,16.07,25.58,34.92,31.24,56.39,4.26,16.14,3.99,32.58,4.25,49.06.33,20.8,9.98,36.47,28.28,46.28,9.69,5.19,21.94,5.84,34.52,5.79,3.9,0,7.8,0,11.69,0,25.15-.06,46.75-18.41,51.1-43.33,1.56-8.94.57-17.94.79-26.91.32-12.79,2.04-25.32,5.83-37.57,6.4-20.68,18.8-37.41,33.03-53.4,28.47-32.02,39.03-69.9,32.68-112.12-4.78-31.81-19.63-58.7-43.74-79.99Zm-54.41,316.69c-5.94,9.18-14.22,14.4-25.33,14.55-7.64.11-15.29.16-22.93-.02-11.48-.27-19.78-5.96-25.67-15.57-1.7-2.77-1.33-3.87,2.2-3.83,11.84.13,23.68.05,35.52.05,11.24,0,22.48-.03,33.72.03,1.4,0,3.34-.79,4.07.8.67,1.43-.79,2.77-1.58,3.99Zm4.57-31.54c.23,3.52-1.09,4.71-4.63,4.67-13.33-.16-26.66-.06-40-.06-11.09,0-22.17-.09-33.26.05-3.25.04-4.57-.97-4.54-4.34.04-3.88-.39-7.77-.76-11.64-.3-3.12.93-4.23,4.07-4.2,12.73.12,25.47.05,38.2.05,12.43,0,24.87.12,37.3-.08,3.78-.06,4.89,1.46,4.28,4.81-.64,3.56-.91,7.15-.67,10.74Zm-54.86-151.4c4.62.34,9.28.08,13.92.08,4.19,0,8.41.28,12.57-.08,4.37-.38,5.69.81,4.93,5.39-2.99,18.14-5.62,36.34-8.42,54.51-2.57,16.69-5.18,33.38-7.8,50.06-.19,1.23.31,3.2-1.57,3.17-1.84-.03-1.34-1.99-1.53-3.22-5.33-34.41-10.65-68.83-15.96-103.25-.09-.59-.05-1.21-.21-1.78-.99-3.59-.02-5.17,4.06-4.87Zm93.89,49.99c-16.03,16.62-27,36.2-32.97,58.47-1.17,4.35-3.18,5.81-7.47,5.47-4.17-.33-8.39-.14-12.58-.06-2.76.05-3.75-1.05-3.32-3.84,4.62-29.55,9.2-59.11,13.77-88.67.87-5.62,1.73-11.24,2.47-16.87.42-3.18,1.71-4.88,5.24-4.46,2.22.26,4.49.12,6.74,0,6.64-.32,11.17-4.89,11.13-11.13-.05-6.22-4.62-10.86-11.31-10.91-17.38-.13-34.77-.04-52.15-.04-16.93-.01-33.87-.06-50.8,0-7.01.03-11.66,4.01-12.15,10.09-.49,6.2,3.88,11.36,10.25,11.93,2.38.21,4.83.35,7.18.03,3.98-.53,5.23,1.45,5.76,4.95,4.83,32.09,9.73,64.18,14.61,96.26.41,2.66.63,5.38,1.33,7.96,1.03,3.83-.57,4.83-4.07,4.71-4.64-.15-9.3-.23-13.93.03-3.24.18-4.47-1.27-5.22-4.16-5.29-20.17-14.77-38.22-28.01-54.28-4.95-6.01-10.54-11.5-15.31-17.64-14.17-18.22-21.96-38.86-23.54-62.01-4.09-59.92,39.96-111.56,95.85-120.74,61.7-10.13,121.44,32.08,131.08,93.61,6.1,38.94-5.1,72.83-32.55,101.29Z"/>
    <path class="cls-1" d="m365.47,278.82c2.4,2.4,5.15,4.12,8.45,3.9,6.64.05,11.04-4.31,11.2-10.58.1-3.75-1.49-6.63-4.02-9.16-13.23-13.24-26.42-26.52-39.72-39.69-5.35-5.3-12.23-5.57-16.77-.97-4.53,4.59-4.21,11.29,1.19,16.76,13.15,13.32,26.43,26.52,39.67,39.74Z"/>
    <path class="cls-1" d="m625.93,282.72c2.98.3,5.79-1.35,8.2-3.75,13.47-13.42,26.9-26.88,40.34-40.34,1.39-1.39,2.53-2.98,3.13-4.87,1.39-4.36.76-8.37-2.62-11.57-3.33-3.15-7.31-3.88-11.65-2.33-2.33.83-4.06,2.48-5.76,4.18-12.7,12.71-25.41,25.41-38.09,38.15-1.26,1.26-2.53,2.61-3.42,4.13-4.32,7.4.79,16.34,9.88,16.39Z"/>
    <path class="cls-1" d="m697.67,386.48c-6.58-.1-13.16-.02-19.74-.02-6.58,0-13.16-.06-19.74.01-7.49.09-12.02,4.25-12.07,10.92-.04,6.75,4.42,11.11,11.81,11.17,13.31.09,26.62.1,39.93,0,6.99-.05,11.71-4.57,11.79-10.91.08-6.5-4.73-11.06-11.98-11.17Z"/>
    <path class="cls-1" d="m510.85,219.01c0-.1-.02-.19-.02-.29h.03c.11-14.08.19-26.8-.04-40.87-.11-6.82-5.08-10.93-11.86-10.6-5.96.29-10.06,4.77-10.12,11.5-.11,12.73.26,28.43.02,41.15.11,6.82,5.08,10.93,11.86,10.6,5.96-.29,10.06-4.77,10.12-11.5Z"/>
  </g>
</svg>