<?xml version="1.0" standalone="no"?>
<!DOCTYPE svg PUBLIC "-//W3C//DTD SVG 20010904//EN"
 "http://www.w3.org/TR/2001/REC-SVG-20010904/DTD/svg10.dtd">
<svg version="1.0" xmlns="http://www.w3.org/2000/svg"
 width="2480.000000pt" height="2480.000000pt" viewBox="0 0 2480.000000 2480.000000"
 preserveAspectRatio="xMidYMid meet">

<g transform="translate(0.000000,2480.000000) scale(0.100000,-0.100000)"
fill="#000000" stroke="none">
<path d="M10450 18032 c0 -4 -24 -13 -52 -19 -29 -6 -70 -15 -90 -21 -49 -13
-172 -77 -223 -115 -22 -17 -492 -482 -1045 -1034 -650 -648 -1013 -1003
-1025 -1003 -34 0 -143 -38 -218 -76 -297 -149 -500 -435 -538 -759 -6 -56 -9
-321 -7 -705 l3 -615 28 -47 c48 -83 152 -124 246 -98 30 8 58 27 92 61 60 62
69 100 69 304 0 85 2 155 6 155 3 0 28 -13 57 -29 175 -97 384 -142 570 -121
91 11 182 31 235 52 15 6 38 15 52 20 33 13 77 36 117 60 17 10 34 14 37 9 10
-16 7 -2324 -3 -2334 -10 -10 -15 -9 -156 31 -120 34 -214 45 -380 45 -174 0
-302 -20 -445 -68 -41 -13 -78 -25 -82 -25 -5 0 -8 96 -8 213 0 257 -8 297
-76 362 -57 55 -119 73 -196 55 -64 -16 -141 -87 -157 -146 -7 -25 -11 -173
-11 -399 l0 -361 -41 -39 c-174 -169 -329 -432 -391 -665 -50 -189 -48 -115
-48 -2004 l0 -1770 21 -43 c22 -46 80 -100 117 -109 12 -4 22 -10 22 -15 0 -5
2106 -9 5065 -9 2888 0 5065 4 5065 9 0 5 12 11 28 14 38 8 96 59 118 104 18
37 19 103 24 1903 l5 1864 90 17 c329 61 583 297 671 624 18 66 19 123 19
1120 0 766 -3 1064 -12 1100 -55 236 -105 354 -216 510 -118 165 -302 320
-479 404 -57 27 -112 51 -123 54 -79 22 -165 51 -165 56 0 4 13 27 28 52 50
80 86 167 114 274 16 63 21 126 25 297 5 199 7 218 24 223 10 3 38 28 63 56
38 42 46 58 52 106 9 76 -3 275 -20 338 -80 286 -193 466 -392 625 -289 232
-670 307 -1009 200 -111 -35 -117 -37 -230 -99 -351 -192 -584 -611 -562
-1012 2 -47 10 -96 17 -110 18 -34 71 -89 96 -99 20 -8 21 -17 26 -217 5 -169
10 -225 28 -297 26 -103 68 -209 110 -278 17 -26 30 -52 30 -57 0 -7 -80 -35
-165 -58 -52 -14 -229 -107 -300 -158 -273 -194 -478 -522 -516 -827 -5 -43
-14 -89 -19 -103 l-9 -24 -668 -3 c-610 -3 -671 -4 -699 -20 -51 -28 -99 -92
-112 -148 -9 -37 -12 -245 -12 -731 l0 -679 -442 2 -443 3 -5 710 c-5 780 -2
734 -66 799 -66 65 -2 61 -949 61 l-860 0 -42 -28 c-23 -16 -54 -47 -70 -70
l-28 -42 -2 -695 c-2 -382 -5 -705 -8 -717 l-5 -23 -389 0 c-345 0 -390 2
-395 16 -3 9 -6 667 -6 1462 l0 1447 763 762 c419 420 766 766 770 770 4 4
243 -227 530 -513 287 -287 545 -539 574 -561 28 -22 85 -54 127 -73 l76 -33
0 -190 0 -191 -233 -236 c-129 -129 -245 -251 -258 -270 -24 -35 -24 -36 -24
-305 l0 -270 33 -47 c40 -58 75 -83 134 -98 66 -17 145 7 198 60 58 58 70 111
70 304 l0 161 153 153 152 152 150 -150 150 -150 5 -178 c6 -171 7 -178 33
-219 15 -24 46 -55 69 -70 36 -24 51 -28 117 -28 66 0 81 4 114 27 94 64 111
130 105 413 -3 169 -7 205 -22 235 -10 19 -128 146 -262 281 l-244 246 0 185
c0 211 -7 193 99 249 87 46 205 165 252 255 63 119 81 193 81 324 1 166 -39
286 -135 415 -47 62 -1601 1618 -1699 1700 -102 86 -212 144 -325 171 -46 10
-83 22 -83 27 0 4 -52 7 -115 7 -63 0 -115 -4 -115 -8z m231 -458 c90 -29 166
-97 216 -195 25 -49 28 -64 28 -154 -1 -94 -3 -104 -35 -163 -142 -265 -521
-262 -652 6 -30 61 -33 74 -33 162 0 85 3 101 29 154 84 170 266 248 447 190z
m-870 -631 c25 -61 35 -81 81 -154 80 -127 205 -233 355 -301 35 -15 63 -30
63 -32 0 -9 -1165 -1166 -1174 -1166 -6 0 -29 33 -50 73 -82 150 -245 312
-390 385 -36 18 -69 38 -72 44 -6 10 1153 1178 1169 1178 4 0 12 -12 18 -27z
m2080 -520 c295 -296 546 -555 559 -577 67 -112 33 -251 -77 -321 -42 -26 -57
-30 -123 -30 -61 0 -82 4 -115 24 -44 26 -1065 1039 -1065 1056 1 5 23 35 51
65 77 84 138 168 170 237 16 34 29 67 29 73 0 5 8 10 18 10 10 0 250 -234 553
-537z m4109 -373 l0 -240 -212 2 -213 3 3 27 c8 80 111 239 208 323 50 43 184
124 207 125 4 0 7 -108 7 -240z m654 115 c100 -85 202 -241 208 -317 l3 -33
-210 0 -210 0 -3 225 c-1 123 0 230 3 238 7 20 131 -47 209 -113z m-8241 -769
c213 -74 356 -275 357 -502 0 -153 -51 -282 -154 -385 -132 -131 -299 -186
-475 -155 -117 21 -200 64 -287 151 -107 105 -153 207 -161 356 -6 100 17 199
66 290 57 104 190 214 304 251 98 32 249 29 350 -6z m8337 -179 c0 -184 -11
-249 -56 -345 -62 -130 -174 -227 -319 -278 -68 -24 -241 -24 -308 -1 -176 62
-305 196 -357 372 -13 44 -26 364 -17 389 6 14 63 16 532 16 l525 0 0 -153z
m245 -1124 c274 -91 466 -283 552 -550 l28 -88 0 -1025 0 -1025 -32 -68 c-52
-110 -173 -207 -280 -224 l-33 -6 -2 969 -3 969 -23 38 c-51 82 -143 122 -236
103 -72 -14 -147 -88 -164 -164 -9 -40 -12 -288 -12 -973 0 -505 -4 -919 -8
-919 -4 0 -13 20 -21 44 -18 63 -96 196 -155 266 -103 122 -242 223 -386 283
-125 51 -208 66 -395 74 l-175 6 0 592 c0 667 0 665 -70 735 -83 83 -217 83
-301 -1 -22 -22 -45 -52 -52 -67 -9 -20 -13 -192 -17 -642 l-5 -615 -127 -3
-127 -3 -3 708 c-3 668 -4 710 -22 743 -10 19 -30 47 -44 62 l-26 28 13 82
c16 105 43 184 93 276 126 230 370 397 618 422 41 4 356 7 700 6 l625 -3 90
-30z m-5410 -1723 l0 -565 -567 -3 c-501 -2 -568 0 -568 13 0 8 0 258 0 555 0
297 0 547 0 555 0 13 67 15 568 13 l567 -3 0 -565z m2919 554 c9 -24 7 -1097
-2 -1112 -7 -10 -128 -12 -573 -10 l-564 3 -3 555 c-1 305 0 561 3 568 3 9
126 12 569 12 505 0 564 -2 570 -16z m-6188 -1578 c3 -8 -8 -41 -25 -73 -17
-32 -42 -83 -55 -114 -25 -59 -40 -68 -120 -70 -47 0 -182 -49 -261 -93 -94
-53 -217 -178 -274 -280 -121 -217 -124 -496 -5 -713 95 -176 253 -305 444
-365 64 -20 95 -23 215 -22 131 0 146 2 230 32 115 41 193 89 277 169 36 34
70 63 75 63 4 0 40 -9 78 -21 42 -13 127 -26 215 -33 l145 -11 3 -1297 2
-1298 -22 -5 c-13 -3 -475 -4 -1028 -3 l-1005 3 -3 1535 c-2 1073 0 1571 8
1655 20 214 94 403 223 564 70 88 196 201 264 236 21 11 59 32 85 47 66 38
247 90 343 98 140 12 185 11 191 -4z m7687 -8 c185 -66 322 -206 373 -383 23
-80 23 -212 0 -290 -52 -178 -184 -313 -371 -382 -48 -17 -188 -18 -3495 -18
-3359 0 -3446 0 -3505 19 -89 28 -163 73 -230 141 -170 169 -209 401 -105 622
77 164 251 288 430 306 19 2 1569 3 3445 3 3184 -1 3413 -2 3458 -18z m-7798
-773 c41 -149 92 -250 187 -372 l49 -62 -43 -28 c-65 -44 -93 -53 -162 -53
-87 0 -147 23 -210 81 -74 68 -100 131 -94 236 2 50 11 92 23 118 38 77 154
168 209 162 16 -2 24 -19 41 -82z m8580 -3343 c-3 -10 -44 -12 -172 -10 l-168
3 -3 1399 -2 1399 90 88 c94 93 163 189 209 292 16 34 32 71 37 82 9 20 19
-3228 9 -3253z m-787 1301 l-3 -1308 -170 0 -170 0 0 1300 0 1300 125 5 c69 3
146 7 173 8 l47 2 -2 -1307z m-793 -8 l0 -1300 -2730 -3 c-1501 -1 -2740 0
-2752 3 l-23 5 0 770 0 770 1283 0 c1389 0 1349 -1 1422 54 58 44 79 91 79
171 0 60 -4 76 -28 112 -15 23 -46 54 -69 70 l-42 28 -1320 5 -1320 5 -3 295
c-1 162 0 300 3 307 3 11 546 13 2752 11 l2748 -3 0 -1300z"/>
<path d="M10517 17440 c-54 -10 -117 -57 -144 -110 -33 -64 -29 -160 10 -218
85 -129 276 -129 362 0 26 38 29 52 30 118 0 70 -3 79 -32 119 -55 75 -134
107 -226 91z"/>
<path d="M8185 15097 c-106 -31 -167 -105 -168 -205 -1 -117 84 -210 199 -220
134 -11 251 116 228 246 -17 92 -74 153 -166 178 -29 7 -53 13 -53 13 0 -1
-18 -6 -40 -12z"/>
<path d="M9756 11022 c-39 -5 -99 -44 -130 -84 -77 -102 -49 -239 65 -315 56
-37 157 -37 215 -1 82 53 126 147 104 229 -32 121 -132 188 -254 171z"/>
<path d="M11160 11021 c-88 -18 -158 -101 -167 -199 -4 -49 -1 -64 24 -112 42
-79 99 -113 192 -113 60 0 74 4 114 31 198 137 72 438 -163 393z"/>
<path d="M12569 11021 c-52 -11 -107 -48 -137 -95 -23 -35 -27 -52 -27 -116 0
-90 22 -133 92 -182 40 -27 54 -31 114 -31 92 0 151 34 191 112 38 72 38 130
-1 202 -45 85 -136 128 -232 110z"/>
<path d="M13978 11021 c-56 -9 -121 -61 -148 -117 -48 -98 -19 -206 74 -273
43 -31 54 -34 116 -34 57 0 75 4 112 28 81 51 122 147 99 232 -30 116 -134
183 -253 164z"/>
<path d="M15386 11023 c-37 -6 -108 -54 -135 -91 -70 -99 -39 -237 70 -309 33
-22 51 -26 107 -26 56 0 75 5 109 26 83 52 127 150 103 230 -35 121 -135 188
-254 170z"/>
<path d="M13060 9193 c-75 -16 -160 -122 -160 -201 0 -95 68 -190 152 -212
126 -35 240 30 276 157 24 81 -24 190 -101 233 -37 22 -120 33 -167 23z"/>
<path d="M7407 13074 c-65 -20 -129 -84 -146 -147 -36 -125 47 -252 177 -273
103 -16 206 54 237 160 15 52 15 60 0 111 -21 73 -75 128 -146 149 -62 19 -60
19 -122 0z"/>
</g>
</svg>
