<?xml version="1.0" encoding="UTF-8"?><svg id="Livello_2" xmlns="http://www.w3.org/2000/svg" viewBox="0 0 446.9 60"><defs><style>.cls-1{fill:#1f2937;}.cls-2{fill:#2ac4e2;}</style></defs><g id="Livello_1-2"><path class="cls-1" d="m0,59.31V.8h25.26c4.34,0,8.14.79,11.4,2.37,3.26,1.58,5.79,3.86,7.6,6.83,1.81,2.97,2.72,6.53,2.72,10.69s-.93,7.72-2.79,10.6c-1.86,2.88-4.46,5.05-7.8,6.51-3.34,1.47-7.24,2.2-11.7,2.2h-15.09v-12.34h11.89c1.87,0,3.46-.23,4.79-.7,1.32-.47,2.34-1.21,3.06-2.24.71-1.03,1.07-2.37,1.07-4.03s-.36-3.04-1.07-4.1c-.71-1.06-1.73-1.84-3.06-2.34-1.32-.5-2.92-.76-4.79-.76h-5.6v45.83H0Zm34.29-26.86l14.63,26.86h-17.26l-14.29-26.86h16.91Z"/><path class="cls-1" d="m58.98,59.31V.8h42.17v12.8h-26.29v10.06h24.11v12.8h-24.11v10.06h26.17v12.8h-42.06Z"/><path class="cls-2" d="m114.45,59.31V.8h41.14v12.8h-25.26v10.06h22.74v12.8h-22.74v22.86h-15.88Z"/><path class="cls-2" d="m166.15,59.31V.8h25.26c4.34,0,8.14.79,11.4,2.37,3.26,1.58,5.79,3.86,7.6,6.83,1.81,2.97,2.72,6.53,2.72,10.69s-.93,7.72-2.79,10.6c-1.86,2.88-4.46,5.05-7.8,6.51-3.34,1.47-7.24,2.2-11.7,2.2h-15.09v-12.34h11.89c1.87,0,3.46-.23,4.79-.7,1.32-.47,2.34-1.21,3.06-2.24.71-1.03,1.07-2.37,1.07-4.03s-.36-3.04-1.07-4.1c-.71-1.06-1.73-1.84-3.06-2.34-1.32-.5-2.92-.76-4.79-.76h-5.6v45.83h-15.89Zm34.29-26.86l14.63,26.86h-17.26l-14.29-26.86h16.91Z"/><path class="cls-2" d="m225.14,59.31V.8h42.17v12.8h-26.29v10.06h24.11v12.8h-24.11v10.06h26.17v12.8h-42.06Z"/><path class="cls-2" d="m280.61,59.31V.8h42.17v12.8h-26.29v10.06h24.11v12.8h-24.11v10.06h26.17v12.8h-42.06Z"/><path class="cls-1" d="m366.41,19.09c-.15-1.9-.86-3.39-2.13-4.46-1.27-1.07-3.19-1.6-5.76-1.6-1.64,0-2.98.2-4.01.58-1.04.39-1.8.92-2.3,1.59-.5.67-.75,1.43-.77,2.29-.04.7.09,1.34.39,1.9.3.56.77,1.07,1.41,1.51.65.45,1.48.85,2.49,1.21,1.01.36,2.21.69,3.6.97l4.8,1.03c3.24.69,6.01,1.59,8.31,2.71,2.31,1.12,4.19,2.44,5.66,3.96,1.47,1.51,2.55,3.21,3.24,5.1.69,1.89,1.05,3.94,1.07,6.17-.02,3.85-.98,7.11-2.89,9.77s-4.62,4.7-8.16,6.09c-3.53,1.39-7.78,2.09-12.73,2.09s-9.52-.75-13.3-2.26c-3.78-1.5-6.71-3.82-8.8-6.96-2.09-3.13-3.14-7.15-3.16-12.04h15.09c.1,1.79.54,3.3,1.34,4.51.8,1.22,1.93,2.14,3.39,2.77s3.19.94,5.21.94c1.69,0,3.11-.21,4.26-.63s2.01-1,2.6-1.74.9-1.59.91-2.54c-.02-.89-.31-1.68-.87-2.36-.56-.68-1.48-1.29-2.76-1.83-1.28-.54-3-1.05-5.17-1.53l-5.83-1.26c-5.18-1.12-9.26-3-12.24-5.64-2.98-2.64-4.46-6.24-4.44-10.81-.02-3.71.98-6.97,2.99-9.76,2.01-2.79,4.8-4.97,8.37-6.53,3.57-1.56,7.67-2.34,12.3-2.34s8.81.79,12.26,2.37c3.45,1.58,6.11,3.81,7.99,6.67,1.88,2.87,2.82,6.21,2.84,10.04h-15.2Z"/><path class="cls-1" d="m394.1,59.31V.8h15.89v22.86h21.03V.8h15.88v58.51h-15.88v-22.86h-21.03v22.86h-15.89Z"/></g></svg>