<?xml version="1.0" encoding="UTF-8"?>
<svg id="Livello_1" data-name="Livello 1" xmlns="http://www.w3.org/2000/svg" viewBox="0 0 1000 1000">
  <defs>
    <style>
      .cls-1 {
        fill: #000000;
        stroke-width: 0px;
      }
    </style>
  </defs>
  <g>
    <path class="cls-1" d="m70.75,826.03v-107.65h42.47c8.13,0,15.08,1.45,20.84,4.34,5.76,2.89,10.16,6.96,13.19,12.24,3.03,5.29,4.55,11.48,4.55,18.58s-1.54,13.29-4.63,18.43c-3.08,5.13-7.54,9.07-13.37,11.8-5.84,2.75-12.89,4.1-21.16,4.1h-28.43v-18.29h24.75c4.35,0,7.96-.6,10.83-1.79,2.87-1.19,5.01-2.98,6.44-5.35,1.41-2.39,2.13-5.35,2.13-8.89s-.72-6.59-2.13-9.03c-1.42-2.45-3.57-4.32-6.47-5.59-2.9-1.29-6.53-1.93-10.9-1.93h-15.35v89.04h-22.76Zm58.14-48.99l26.75,48.99h-25.13l-26.18-48.99h24.55Z"/>
    <path class="cls-1" d="m202.89,827.6c-8.3,0-15.44-1.69-21.42-5.07-5.97-3.38-10.57-8.18-13.79-14.39-3.22-6.23-4.84-13.59-4.84-22.11s1.61-15.6,4.84-21.87c3.22-6.27,7.77-11.16,13.64-14.66,5.87-3.5,12.76-5.25,20.68-5.25,5.32,0,10.29.84,14.89,2.55,4.61,1.69,8.65,4.24,12.09,7.64,3.45,3.4,6.15,7.66,8.07,12.79,1.93,5.13,2.9,11.14,2.9,18.01v6.15h-68.17v-13.87h47.09c0-3.22-.7-6.09-2.1-8.58-1.4-2.49-3.33-4.44-5.81-5.85-2.47-1.43-5.33-2.13-8.59-2.13s-6.41.78-9.02,2.33c-2.61,1.57-4.65,3.64-6.12,6.27-1.47,2.61-2.23,5.51-2.26,8.7v13.19c0,4,.75,7.44,2.23,10.35,1.49,2.91,3.6,5.15,6.34,6.73,2.74,1.59,5.97,2.37,9.72,2.37,2.49,0,4.77-.34,6.83-1.05,2.07-.7,3.84-1.75,5.31-3.14,1.47-1.41,2.59-3.12,3.36-5.15l20.7,1.37c-1.04,4.97-3.19,9.31-6.44,12.99-3.24,3.7-7.41,6.59-12.51,8.64-5.1,2.05-10.97,3.06-17.64,3.06Z"/>
    <path class="cls-1" d="m276.96,779.35v46.68h-22.4v-80.73h21.34v14.23h.95c1.79-4.7,4.79-8.42,8.99-11.16,4.2-2.75,9.3-4.12,15.29-4.12,5.61,0,10.5,1.21,14.66,3.68,4.17,2.45,7.41,5.95,9.72,10.49,2.32,4.54,3.47,9.93,3.47,16.22v51.4h-22.39v-47.42c.03-4.93-1.23-8.79-3.79-11.58-2.56-2.79-6.08-4.18-10.57-4.18-3.01,0-5.67.64-7.96,1.95-2.3,1.29-4.09,3.16-5.36,5.65-1.28,2.47-1.94,5.43-1.97,8.89Z"/>
    <path class="cls-1" d="m376.34,827.34c-6.13,0-11.67-1.59-16.63-4.76-4.95-3.16-8.88-7.84-11.77-14.03-2.9-6.19-4.34-13.79-4.34-22.78s1.49-16.95,4.47-23.1c2.97-6.17,6.94-10.76,11.91-13.83,4.95-3.06,10.4-4.6,16.32-4.6,4.53,0,8.3.76,11.33,2.29,3.02,1.51,5.48,3.4,7.35,5.67,1.88,2.25,3.3,4.48,4.29,6.65h.69v-40.47h22.34v107.65h-22.08v-12.93h-.95c-1.05,2.25-2.54,4.46-4.45,6.65-1.91,2.19-4.38,4.02-7.4,5.45-3.03,1.43-6.73,2.15-11.07,2.15Zm7.1-17.81c3.6,0,6.67-.99,9.17-2.98,2.5-1.97,4.43-4.76,5.78-8.32,1.34-3.58,2.02-7.76,2.02-12.58s-.67-8.97-2-12.5c-1.33-3.54-3.25-6.29-5.78-8.22-2.52-1.91-5.59-2.89-9.19-2.89s-6.79.99-9.3,3c-2.53,1.99-4.44,4.76-5.73,8.3-1.3,3.54-1.95,7.64-1.95,12.3s.66,8.83,1.97,12.44c1.31,3.6,3.22,6.39,5.73,8.42,2.51,2.01,5.6,3.02,9.28,3.02Z"/>
    <path class="cls-1" d="m451.89,734.88c-3.33,0-6.18-1.09-8.55-3.32s-3.54-4.89-3.54-8.02,1.17-5.73,3.54-7.96c2.37-2.23,5.21-3.34,8.55-3.34s6.18,1.11,8.54,3.34c2.37,2.23,3.55,4.88,3.55,7.96s-1.18,5.79-3.55,8.02c-2.36,2.23-5.21,3.32-8.54,3.32Zm-11.25,91.15v-80.73h22.4v80.73h-22.4Z"/>
    <path class="cls-1" d="m480.89,826.03v-80.73h21.34v14.23h.95c1.68-4.72,4.49-8.46,8.42-11.18,3.92-2.75,8.62-4.1,14.08-4.1s10.26,1.37,14.15,4.12c3.89,2.75,6.48,6.47,7.78,11.16h.84c1.65-4.62,4.64-8.32,8.96-11.1,4.33-2.79,9.45-4.18,15.37-4.18,7.53,0,13.66,2.39,18.38,7.16,4.71,4.8,7.06,11.56,7.06,20.32v54.3h-22.34v-49.88c0-4.48-1.19-7.84-3.57-10.09-2.39-2.25-5.36-3.36-8.94-3.36-4.06,0-7.23,1.29-9.51,3.86-2.28,2.57-3.41,5.97-3.41,10.17v49.31h-21.71v-50.36c0-3.96-1.13-7.1-3.39-9.45-2.26-2.35-5.23-3.52-8.9-3.52-2.5,0-4.73.62-6.71,1.87-1.98,1.23-3.55,2.96-4.71,5.19-1.15,2.23-1.73,4.84-1.73,7.8v48.47h-22.4Z"/>
    <path class="cls-1" d="m652.67,827.6c-8.3,0-15.44-1.69-21.42-5.07-5.97-3.38-10.57-8.18-13.79-14.39-3.22-6.23-4.84-13.59-4.84-22.11s1.61-15.6,4.84-21.87c3.22-6.27,7.77-11.16,13.64-14.66,5.87-3.5,12.76-5.25,20.68-5.25,5.32,0,10.29.84,14.89,2.55,4.61,1.69,8.65,4.24,12.09,7.64,3.45,3.4,6.15,7.66,8.07,12.79,1.93,5.13,2.9,11.14,2.9,18.01v6.15h-68.17v-13.87h47.09c0-3.22-.7-6.09-2.1-8.58-1.4-2.49-3.33-4.44-5.81-5.85-2.47-1.43-5.33-2.13-8.59-2.13s-6.41.78-9.02,2.33c-2.61,1.57-4.65,3.64-6.12,6.27-1.47,2.61-2.23,5.51-2.26,8.7v13.19c0,4,.75,7.44,2.23,10.35,1.49,2.91,3.6,5.15,6.34,6.73,2.74,1.59,5.97,2.37,9.72,2.37,2.49,0,4.77-.34,6.83-1.05,2.07-.7,3.84-1.75,5.31-3.14,1.47-1.41,2.59-3.12,3.36-5.15l20.7,1.37c-1.04,4.97-3.19,9.31-6.44,12.99-3.24,3.7-7.41,6.59-12.51,8.64-5.1,2.05-10.97,3.06-17.64,3.06Z"/>
    <path class="cls-1" d="m726.73,779.35v46.68h-22.4v-80.73h21.34v14.23h.95c1.79-4.7,4.79-8.42,8.99-11.16,4.2-2.75,9.3-4.12,15.29-4.12,5.61,0,10.5,1.21,14.66,3.68,4.17,2.45,7.41,5.95,9.72,10.49,2.32,4.54,3.47,9.93,3.47,16.22v51.4h-22.39v-47.42c.03-4.93-1.23-8.79-3.79-11.58-2.56-2.79-6.08-4.18-10.57-4.18-3.01,0-5.67.64-7.96,1.95-2.3,1.29-4.09,3.16-5.36,5.65-1.28,2.47-1.94,5.43-1.97,8.89Z"/>
    <path class="cls-1" d="m839.32,745.3v16.81h-48.62v-16.81h48.62Zm-37.59-19.36h22.4v75.27c0,2.07.31,3.68.95,4.82.63,1.13,1.51,1.93,2.66,2.39,1.13.46,2.46.68,3.96.68,1.05,0,2.11-.08,3.15-.28,1.05-.2,1.86-.34,2.42-.46l3.52,16.67c-1.11.34-2.7.76-4.73,1.23s-4.51.76-7.41.86c-5.39.22-10.12-.5-14.17-2.15-4.05-1.65-7.19-4.2-9.43-7.68-2.25-3.46-3.35-7.84-3.31-13.13v-78.22Z"/>
    <path class="cls-1" d="m889.51,827.6c-8.17,0-15.22-1.73-21.16-5.23-5.94-3.48-10.52-8.36-13.74-14.61-3.22-6.25-4.84-13.51-4.84-21.79s1.61-15.64,4.84-21.89c3.22-6.25,7.8-11.12,13.74-14.61,5.94-3.5,12.99-5.23,21.16-5.23s15.21,1.73,21.15,5.23c5.94,3.48,10.53,8.36,13.75,14.61,3.22,6.25,4.84,13.55,4.84,21.89s-1.61,15.54-4.84,21.79c-3.22,6.25-7.81,11.12-13.75,14.61-5.94,3.5-12.99,5.23-21.15,5.23Zm.1-17.33c3.72,0,6.82-1.07,9.3-3.18,2.49-2.13,4.38-5.03,5.65-8.7,1.28-3.68,1.92-7.88,1.92-12.58s-.64-8.87-1.92-12.56c-1.27-3.68-3.16-6.59-5.65-8.74-2.49-2.13-5.58-3.2-9.3-3.2s-6.89,1.07-9.43,3.2c-2.54,2.15-4.45,5.05-5.73,8.74-1.28,3.68-1.92,7.86-1.92,12.56s.64,8.89,1.92,12.58c1.28,3.66,3.19,6.57,5.73,8.7,2.54,2.11,5.68,3.18,9.43,3.18Z"/>
  </g>
  <g>
    <path class="cls-1" d="m775.71,597.48h-20.78v-288.46c0-5.63-4.56-10.19-10.19-10.19h-79.74c-5.63,0-10.19,4.56-10.19,10.19v288.46h-37.72v-171.1c0-5.63-4.56-10.19-10.19-10.19h-76.57c-5.63,0-10.19,4.56-10.19,10.19v171.1h-38.23v-232.79c0-5.63-4.56-10.19-10.19-10.19h-79.8c-5.63,0-10.19,4.56-10.19,10.19v232.79h-33.79v-98.89c0-5.63-4.56-10.19-10.19-10.19h-83.5c-5.63,0-10.19,4.56-10.19,10.19v98.89h-19.79c-5.63,0-10.19,4.56-10.19,10.19s4.56,10.19,10.19,10.19h551.42c5.63,0,10.19-4.56,10.19-10.19s-4.56-10.19-10.19-10.19Zm-100.52-278.27h59.37v278.27h-59.37v-278.27Zm-134.66,117.36h56.19v160.92h-56.19v-160.92Zm-138.41-61.68h59.43v222.6h-59.43v-222.6Zm-137.66,133.89h63.13v88.71h-63.13v-88.71Z"/>
    <path class="cls-1" d="m295.25,406.88c23.26,0,42.18-18.92,42.18-42.18,0-7.92-2.41-15.61-6.54-22.26l71.25-71.45c8.48,5.74,18.69,9.1,29.68,9.1,17.63,0,33.17-8.73,42.83-22.01l53.5,42.83c-5.03,7.64-8.01,16.75-8.01,26.56,0,26.72,21.75,48.45,48.47,48.45s48.47-21.73,48.47-48.45c0-10.21-3.21-19.66-8.62-27.48l92.81-92.8v19.84c0,5.63,4.56,10.19,10.19,10.19s10.19-4.56,10.19-10.19v-44.55c-.03-2.51-.97-4.8-2.5-6.57h0c-.44-.52-.94-.98-1.48-1.39-1.51-1.17-3.37-1.91-5.39-2.07-.29-.02-.53,0-.89-.04h-46.39c-5.63,0-10.19,4.56-10.19,10.19s4.56,10.19,10.19,10.19h21.88l-93.34,93.33c-7.31-4.42-15.77-7.11-24.91-7.11s-18.28,2.84-25.76,7.57l-59.45-47.59c.9-3.86,1.48-7.83,1.48-11.96,0-29.27-23.81-53.07-53.07-53.07s-53.07,23.8-53.07,53.07c0,10.92,3.33,21.08,9,29.52l-71.52,71.72c-6.34-3.66-13.5-5.75-20.98-5.75-23.25,0-42.17,18.92-42.17,42.18s18.92,42.18,42.17,42.18Zm301.46-79.41c0,15.48-12.61,28.08-28.1,28.08s-28.1-12.6-28.1-28.08,12.61-28.1,28.1-28.1,28.1,12.6,28.1,28.1Zm-164.89-133.14c18.03,0,32.69,14.66,32.69,32.69s-14.66,32.69-32.69,32.69-32.69-14.66-32.69-32.69,14.66-32.69,32.69-32.69Zm-136.57,148.56c5.64,0,10.98,2.15,15.07,6.05,4.35,4.16,6.74,9.75,6.74,15.76,0,12.02-9.78,21.81-21.81,21.81s-21.8-9.79-21.8-21.81,9.78-21.81,21.8-21.81Z"/>
  </g>
</svg>