<?xml version="1.0" standalone="no"?>
<!DOCTYPE svg PUBLIC "-//W3C//DTD SVG 20010904//EN"
 "http://www.w3.org/TR/2001/REC-SVG-20010904/DTD/svg10.dtd">
<svg version="1.0" xmlns="http://www.w3.org/2000/svg"
 width="2480.000000pt" height="2480.000000pt" viewBox="0 0 2480.000000 2480.000000"
 preserveAspectRatio="xMidYMid meet">

<g transform="translate(0.000000,2480.000000) scale(0.100000,-0.100000)"
fill="#000000" stroke="none">
<path d="M7710 17472 c0 -5 -22 -14 -50 -21 -141 -36 -285 -189 -326 -348 -21
-80 -21 -6371 0 -6450 47 -177 181 -312 357 -358 46 -13 298 -15 1645 -15
l1592 0 14 -22 c8 -13 21 -41 29 -63 29 -86 171 -351 252 -472 119 -178 200
-277 351 -429 151 -151 270 -248 446 -364 121 -80 413 -231 515 -265 28 -10
82 -29 120 -42 259 -90 587 -143 883 -143 177 0 309 14 567 60 124 22 344 91
495 154 l84 36 225 -223 c267 -265 295 -283 426 -281 50 1 93 7 115 17 l35 16
385 -383 c224 -223 408 -397 440 -417 73 -47 167 -87 235 -102 30 -6 55 -15
55 -19 0 -4 54 -8 120 -8 73 0 120 4 120 10 0 6 9 10 21 10 36 0 164 48 227
84 370 218 482 686 250 1049 -26 40 -173 195 -421 444 l-380 382 14 33 c9 20
14 68 14 123 0 136 -9 150 -274 418 l-225 227 13 38 c8 20 22 55 32 77 63 137
138 410 173 625 30 187 36 537 12 731 -25 199 -63 371 -124 554 -43 130 -65
183 -143 350 -27 57 -94 176 -162 285 l-47 74 0 2112 c0 2087 0 2113 -20 2177
-26 84 -87 175 -153 228 -54 44 -160 99 -189 99 -9 0 -20 5 -23 10 -8 12
-7725 14 -7725 2z m7700 -345 c31 -16 51 -36 67 -68 22 -43 23 -51 20 -304
l-2 -260 -3922 -3 -3923 -2 0 270 c0 288 2 302 50 345 12 11 34 25 48 32 21 9
926 12 3823 12 l3796 1 43 -23z m88 -2424 c1 -805 0 -1463 -3 -1463 -3 0 -49
38 -101 84 -184 164 -379 298 -596 408 l-118 60 0 962 0 961 -23 40 c-13 22
-40 49 -62 62 -39 22 -45 23 -401 23 -388 0 -405 -2 -450 -52 -12 -12 -25 -32
-30 -43 -5 -11 -11 -398 -14 -863 l-5 -844 -160 0 -160 0 -5 354 c-6 401 -5
400 -89 445 -44 23 -47 23 -399 23 -341 0 -358 -1 -399 -21 -29 -14 -52 -35
-68 -63 l-25 -43 0 -471 0 -472 -85 -41 c-272 -129 -496 -290 -731 -524 -233
-232 -375 -425 -515 -700 -84 -166 -115 -239 -165 -395 -151 -463 -178 -916
-84 -1404 12 -59 19 -110 17 -112 -2 -2 -691 -4 -1531 -4 -1509 0 -1528 0
-1566 20 -26 13 -47 34 -60 60 -20 39 -20 53 -20 2760 l0 2720 3923 -2 3922
-3 3 -1462z m-1148 12 c0 -437 -3 -795 -6 -795 -4 0 -37 8 -73 19 -72 20 -145
37 -203 47 l-38 6 0 759 0 759 160 0 160 0 0 -795z m-1310 -453 l0 -269 -97
-20 c-54 -11 -124 -28 -156 -37 -32 -9 -60 -16 -62 -16 -3 0 -5 137 -5 305 l0
305 160 0 160 0 0 -268z m786 -567 c318 -42 574 -121 841 -260 617 -321 1072
-893 1243 -1563 149 -580 86 -1170 -182 -1707 -416 -834 -1257 -1355 -2188
-1355 -668 0 -1267 248 -1740 720 -614 611 -857 1502 -640 2344 206 799 814
1452 1595 1711 176 58 295 85 510 114 104 15 443 12 561 -4z m2249 -4065 l170
-170 -450 -450 c-247 -248 -454 -450 -460 -450 -13 0 -335 322 -335 335 0 5
40 36 88 67 270 176 555 461 744 743 34 52 65 94 68 95 3 0 82 -77 175 -170z
m611 -932 c206 -207 372 -383 388 -409 56 -97 72 -230 41 -333 -51 -169 -223
-295 -401 -296 -59 0 -159 31 -218 67 -46 28 -756 731 -756 748 0 12 568 585
579 585 4 0 169 -163 367 -362z"/>
<path d="M10038 15827 c-14 -7 -36 -21 -48 -32 -51 -47 -50 -24 -50 -772 l0
-698 23 -39 c13 -23 38 -48 62 -60 39 -21 50 -21 730 -21 l690 0 41 24 c63 36
84 81 84 182 0 125 -29 285 -76 426 -163 489 -595 871 -1099 972 -159 32 -308
39 -357 18z m357 -354 c242 -59 501 -241 647 -455 85 -126 172 -338 180 -439
l3 -44 -480 0 -480 0 -3 470 c-1 259 0 476 3 482 5 14 28 11 130 -14z"/>
<path d="M9326 15179 c-180 -15 -349 -61 -511 -140 -181 -87 -286 -162 -422
-301 -189 -192 -320 -432 -382 -701 -137 -589 114 -1212 624 -1549 193 -128
392 -201 629 -233 130 -18 209 -19 331 -5 454 53 839 289 1085 665 89 137 166
317 200 471 16 71 40 254 40 305 0 84 -46 153 -119 178 -24 8 -207 11 -612 11
l-579 0 0 584 c0 640 1 628 -60 679 -28 24 -91 49 -115 46 -5 -1 -54 -5 -109
-10z m-46 -871 l0 -533 -369 -367 c-202 -203 -373 -368 -379 -368 -24 0 -129
185 -167 295 -102 294 -82 612 55 888 147 292 403 505 715 593 44 12 95 23
113 23 l32 1 0 -532z m1292 -793 c-22 -190 -158 -449 -319 -610 -351 -349
-875 -434 -1316 -214 -82 41 -167 95 -167 107 0 4 168 175 373 380 l372 372
530 -2 530 -3 -3 -30z"/>
<path d="M8049 11887 c-19 -12 -44 -42 -56 -67 -23 -43 -23 -51 -23 -395 0
-318 2 -354 19 -390 22 -48 44 -69 94 -90 32 -13 159 -15 1040 -15 l1003 0 44
23 c30 14 53 36 67 62 22 39 23 46 23 409 0 357 -1 369 -21 406 -12 21 -38 47
-59 59 l-38 21 -1029 0 -1030 0 -34 -23z m1886 -462 l0 -160 -817 -3 -818 -2
0 158 c0 87 3 162 7 165 3 4 371 6 817 5 l811 -3 0 -160z"/>
<path d="M13381 13379 c-942 -72 -1721 -746 -1922 -1664 -60 -275 -64 -601
-10 -855 5 -25 14 -67 19 -95 11 -52 56 -204 72 -242 6 -13 14 -33 18 -45 23
-62 148 -304 193 -374 207 -318 527 -600 864 -759 300 -143 590 -207 925 -208
734 0 1412 378 1804 1008 95 153 180 349 246 570 14 48 48 232 59 325 33 265
-9 647 -100 900 -11 30 -27 73 -34 96 -45 127 -178 364 -283 501 -376 493
-916 789 -1537 843 -132 11 -162 11 -314 -1z m297 -325 l22 -6 -2 -567 -3
-566 -160 0 -160 0 -3 567 c-2 533 -1 567 15 571 27 7 265 8 291 1z m-638
-604 l0 -540 -160 0 -160 0 0 475 0 476 74 35 c56 27 223 91 244 94 1 0 2
-243 2 -540z m1095 505 c28 -9 87 -34 133 -55 l82 -39 -2 -473 -3 -473 -157
-3 -158 -3 0 540 0 540 28 -9 c15 -4 50 -16 77 -25z m-1747 -686 l-3 -354
-112 -5 c-129 -6 -153 -17 -190 -90 -23 -43 -23 -51 -23 -391 0 -232 4 -357
11 -380 16 -46 46 -78 94 -100 38 -18 98 -19 1368 -19 1172 0 1332 2 1364 15
50 21 72 42 94 90 17 36 19 72 19 390 0 344 0 352 -22 395 -38 73 -62 84 -191
90 l-112 5 -3 350 c-1 192 0 356 3 364 4 10 33 -12 96 -75 170 -168 270 -305
370 -509 124 -255 179 -493 179 -778 0 -214 -40 -451 -102 -602 l-23 -56
-1670 0 -1670 1 -22 48 c-29 65 -80 276 -93 382 -14 120 -12 369 4 475 48 309
153 563 336 817 60 84 281 311 292 300 4 -4 7 -168 6 -363z m2290 -846 l2
-163 -1145 0 -1145 0 0 158 c0 87 3 162 7 165 3 4 518 6 1142 5 l1136 -3 3
-162z m352 -1154 c0 -19 -113 -162 -200 -253 -434 -453 -1081 -649 -1687 -511
-211 48 -478 167 -653 292 -113 81 -315 279 -393 385 -32 42 -57 81 -57 87 0
8 436 11 1495 11 1059 0 1495 -3 1495 -11z"/>
</g>
</svg>
