<?xml version="1.0" encoding="UTF-8"?>
<svg id="Livello_1" data-name="Livello 1" xmlns="http://www.w3.org/2000/svg" viewBox="0 0 1000 1000">
  <defs>
    <style>
      .cls-1 {
        fill: #fff700;
        stroke-width: 0px;
      }
    </style>
  </defs>
  <g>
    <path class="cls-1" d="m115.77,753.34c-.42-4.24-2.23-7.54-5.41-9.89-3.19-2.35-7.52-3.52-12.98-3.52-3.71,0-6.85.52-9.41,1.55-2.56,1.03-4.51,2.47-5.86,4.3-1.34,1.81-2.02,3.88-2.02,6.19-.07,1.93.34,3.62,1.23,5.05s2.13,2.67,3.7,3.7c1.58,1.03,3.4,1.93,5.47,2.69,2.07.76,4.27,1.39,6.63,1.91l9.67,2.31c4.7,1.05,9,2.47,12.92,4.22,3.93,1.75,7.32,3.9,10.2,6.47,2.88,2.55,5.11,5.57,6.71,9.03,1.59,3.46,2.41,7.44,2.44,11.94-.03,6.59-1.7,12.28-5.01,17.11-3.31,4.82-8.08,8.54-14.3,11.18s-13.71,3.98-22.47,3.98-16.25-1.33-22.67-4c-6.44-2.67-11.44-6.63-15.03-11.86-3.59-5.23-5.48-11.72-5.65-19.48h22.02c.25,3.62,1.29,6.63,3.13,9.01,1.84,2.41,4.31,4.22,7.41,5.43,3.09,1.19,6.61,1.81,10.54,1.81s7.21-.56,10.07-1.69c2.86-1.11,5.06-2.69,6.65-4.68,1.57-1.99,2.37-4.3,2.37-6.88,0-2.41-.72-4.46-2.13-6.09-1.42-1.65-3.49-3.06-6.21-4.22-2.72-1.15-6.03-2.21-9.96-3.14l-11.72-2.94c-9.07-2.21-16.24-5.67-21.5-10.37-5.25-4.7-7.87-11-7.83-18.96-.04-6.53,1.71-12.22,5.23-17.09,3.52-4.86,8.37-8.68,14.53-11.4,6.17-2.73,13.18-4.1,21.03-4.1s14.97,1.37,20.94,4.1c5.98,2.73,10.63,6.55,13.96,11.4,3.32,4.88,5.04,10.53,5.15,16.93h-21.82Z"/>
    <path class="cls-1" d="m190.36,831.6c-8.17,0-15.22-1.73-21.16-5.23-5.94-3.48-10.52-8.36-13.74-14.61-3.22-6.25-4.84-13.51-4.84-21.79s1.61-15.64,4.84-21.89c3.22-6.25,7.8-11.12,13.74-14.61,5.94-3.5,12.99-5.23,21.16-5.23s15.21,1.73,21.15,5.23c5.94,3.48,10.53,8.36,13.75,14.61,3.22,6.25,4.84,13.55,4.84,21.89s-1.61,15.54-4.84,21.79c-3.22,6.25-7.81,11.12-13.75,14.61-5.94,3.5-12.99,5.23-21.15,5.23Zm.1-17.33c3.72,0,6.82-1.07,9.3-3.18,2.49-2.13,4.38-5.03,5.65-8.7,1.28-3.68,1.92-7.88,1.92-12.58s-.64-8.87-1.92-12.56c-1.27-3.68-3.16-6.59-5.65-8.74-2.49-2.13-5.58-3.2-9.3-3.2s-6.89,1.07-9.43,3.2c-2.54,2.15-4.45,5.05-5.73,8.74-1.28,3.68-1.92,7.86-1.92,12.56s.64,8.89,1.92,12.58c1.28,3.66,3.19,6.57,5.73,8.7,2.54,2.11,5.68,3.18,9.43,3.18Z"/>
    <path class="cls-1" d="m311.88,772.33l-20.49,1.25c-.36-1.75-1.1-3.34-2.27-4.76-1.15-1.41-2.67-2.57-4.55-3.42-1.87-.86-4.11-1.29-6.7-1.29-3.47,0-6.4.74-8.78,2.19-2.39,1.45-3.58,3.38-3.58,5.81,0,1.93.78,3.56,2.32,4.89,1.54,1.33,4.19,2.39,7.94,3.2l14.61,2.94c7.85,1.61,13.7,4.2,17.56,7.78,3.85,3.56,5.78,8.26,5.78,14.09,0,5.29-1.55,9.93-4.66,13.93-3.09,3.98-7.34,7.1-12.71,9.33-5.38,2.21-11.57,3.32-18.58,3.32-10.69,0-19.19-2.23-25.52-6.71-6.33-4.46-10.03-10.55-11.11-18.27l22.03-1.15c.66,3.26,2.27,5.75,4.84,7.44,2.56,1.71,5.83,2.55,9.83,2.55s7.08-.76,9.48-2.29c2.4-1.51,3.62-3.48,3.65-5.91-.03-2.03-.89-3.7-2.58-5.01-1.68-1.31-4.27-2.33-7.77-3.02l-13.99-2.79c-7.88-1.57-13.74-4.32-17.58-8.2-3.84-3.9-5.76-8.85-5.76-14.88,0-5.17,1.41-9.65,4.24-13.39,2.82-3.76,6.8-6.65,11.93-8.68,5.13-2.03,11.15-3.04,18.06-3.04,10.2,0,18.23,2.15,24.1,6.47,5.87,4.3,9.29,10.17,10.28,17.61Z"/>
    <path class="cls-1" d="m370.81,749.3v16.81h-48.62v-16.81h48.62Zm-37.59-19.36h22.4v75.27c0,2.07.31,3.68.95,4.82.63,1.13,1.51,1.93,2.66,2.39,1.13.46,2.46.68,3.96.68,1.05,0,2.11-.08,3.15-.28,1.05-.2,1.86-.34,2.42-.46l3.52,16.67c-1.11.34-2.7.76-4.73,1.23-2.03.48-4.51.76-7.41.86-5.39.22-10.12-.5-14.17-2.15s-7.19-4.2-9.43-7.68c-2.25-3.46-3.35-7.84-3.31-13.13v-78.22Z"/>
    <path class="cls-1" d="m421.31,831.6c-8.3,0-15.44-1.69-21.42-5.07-5.97-3.38-10.57-8.18-13.79-14.39-3.22-6.23-4.84-13.59-4.84-22.11s1.61-15.6,4.84-21.87c3.22-6.27,7.77-11.16,13.64-14.66,5.87-3.5,12.76-5.25,20.68-5.25,5.32,0,10.29.84,14.89,2.55,4.61,1.69,8.65,4.24,12.09,7.64,3.45,3.4,6.15,7.66,8.07,12.79,1.93,5.13,2.9,11.14,2.9,18.01v6.15h-68.17v-13.87h47.09c0-3.22-.7-6.09-2.1-8.58s-3.33-4.44-5.81-5.85c-2.47-1.43-5.33-2.13-8.59-2.13s-6.41.78-9.02,2.33c-2.61,1.57-4.65,3.64-6.12,6.27-1.47,2.61-2.23,5.51-2.26,8.7v13.19c0,4,.75,7.44,2.23,10.35,1.49,2.91,3.6,5.15,6.34,6.73,2.74,1.59,5.97,2.37,9.72,2.37,2.49,0,4.77-.34,6.83-1.05,2.07-.7,3.84-1.75,5.31-3.14,1.47-1.41,2.59-3.12,3.36-5.15l20.7,1.37c-1.04,4.97-3.19,9.31-6.44,12.99-3.24,3.7-7.41,6.59-12.51,8.64-5.1,2.05-10.97,3.06-17.64,3.06Z"/>
    <path class="cls-1" d="m495.38,783.35v46.68h-22.4v-80.73h21.34v14.23h.95c1.79-4.7,4.79-8.42,8.99-11.16,4.2-2.75,9.3-4.12,15.29-4.12,5.61,0,10.5,1.21,14.66,3.68,4.17,2.45,7.41,5.95,9.72,10.49,2.32,4.54,3.47,9.93,3.47,16.22v51.4h-22.39v-47.42c.03-4.93-1.23-8.79-3.79-11.58s-6.08-4.18-10.57-4.18c-3.01,0-5.67.64-7.96,1.95-2.3,1.29-4.09,3.16-5.36,5.65-1.28,2.47-1.94,5.43-1.97,8.89Z"/>
    <path class="cls-1" d="m576.27,738.88c-3.33,0-6.18-1.09-8.55-3.32-2.37-2.23-3.54-4.89-3.54-8.02s1.17-5.73,3.54-7.96,5.21-3.34,8.55-3.34,6.18,1.11,8.54,3.34c2.37,2.23,3.55,4.88,3.55,7.96s-1.18,5.79-3.55,8.02c-2.36,2.23-5.21,3.32-8.54,3.32Zm-11.25,91.15v-80.73h22.4v80.73h-22.4Z"/>
    <path class="cls-1" d="m605.69,830.03v-107.65h22.4v40.47h.69c.98-2.17,2.41-4.4,4.28-6.65,1.88-2.27,4.33-4.16,7.36-5.67,3.03-1.53,6.81-2.29,11.32-2.29,5.89,0,11.32,1.53,16.3,4.6,4.97,3.06,8.95,7.66,11.94,13.83,2.97,6.15,4.47,13.85,4.47,23.1s-1.45,16.59-4.34,22.78c-2.9,6.19-6.82,10.86-11.78,14.03-4.95,3.16-10.5,4.76-16.63,4.76-4.35,0-8.03-.72-11.06-2.15-3.03-1.43-5.51-3.26-7.43-5.45-1.93-2.19-3.4-4.4-4.42-6.65h-1v12.93h-22.08Zm21.92-40.37c0,4.82.67,8.99,2,12.58,1.33,3.56,3.26,6.35,5.78,8.32,2.53,1.99,5.59,2.98,9.2,2.98s6.73-1.01,9.25-3.02c2.52-2.03,4.44-4.82,5.75-8.42,1.31-3.6,1.97-7.74,1.97-12.44s-.65-8.76-1.94-12.3c-1.29-3.54-3.2-6.31-5.73-8.3-2.52-2.01-5.62-3-9.3-3s-6.72.98-9.22,2.89c-2.51,1.93-4.43,4.68-5.76,8.22-1.33,3.52-2,7.7-2,12.5Z"/>
    <path class="cls-1" d="m710.57,738.88c-3.33,0-6.18-1.09-8.55-3.32-2.37-2.23-3.54-4.89-3.54-8.02s1.17-5.73,3.54-7.96,5.21-3.34,8.55-3.34,6.18,1.11,8.54,3.34c2.37,2.23,3.55,4.88,3.55,7.96s-1.18,5.79-3.55,8.02c-2.36,2.23-5.21,3.32-8.54,3.32Zm-11.25,91.15v-80.73h22.4v80.73h-22.4Z"/>
    <path class="cls-1" d="m761.97,722.38v107.65h-22.4v-107.65h22.4Z"/>
    <path class="cls-1" d="m791.08,738.88c-3.33,0-6.18-1.09-8.55-3.32s-3.54-4.89-3.54-8.02,1.17-5.73,3.54-7.96c2.37-2.23,5.21-3.34,8.55-3.34s6.18,1.11,8.54,3.34c2.37,2.23,3.55,4.88,3.55,7.96s-1.18,5.79-3.55,8.02c-2.36,2.23-5.21,3.32-8.54,3.32Zm-11.25,91.15v-80.73h22.4v80.73h-22.4Z"/>
    <path class="cls-1" d="m863.04,749.3v16.81h-48.62v-16.81h48.62Zm-37.59-19.36h22.4v75.27c0,2.07.31,3.68.95,4.82.63,1.13,1.51,1.93,2.66,2.39,1.13.46,2.46.68,3.96.68,1.05,0,2.11-.08,3.15-.28,1.05-.2,1.86-.34,2.42-.46l3.52,16.67c-1.11.34-2.7.76-4.73,1.23-2.03.48-4.51.76-7.41.86-5.39.22-10.12-.5-14.17-2.15-4.05-1.65-7.19-4.2-9.43-7.68-2.25-3.46-3.35-7.84-3.31-13.13v-78.22Z"/>
    <path class="cls-1" d="m900.62,831.56c-5.15,0-9.74-.92-13.77-2.71-4.03-1.81-7.21-4.5-9.54-8.06-2.33-3.54-3.49-8-3.49-13.31,0-4.5.82-8.26,2.47-11.3,1.65-3.04,3.89-5.51,6.73-7.36,2.85-1.85,6.08-3.26,9.7-4.2,3.63-.96,7.44-1.61,11.43-2.01,4.7-.48,8.48-.96,11.35-1.39,2.88-.44,4.96-1.09,6.26-1.97,1.29-.88,1.95-2.17,1.95-3.88v-.32c0-3.32-1.04-5.91-3.13-7.72-2.08-1.83-5.03-2.75-8.85-2.75-4.03,0-7.23.9-9.62,2.67-2.38,1.77-3.96,3.98-4.73,6.65l-20.71-1.69c1.05-4.89,3.11-9.15,6.2-12.73,3.08-3.6,7.07-6.37,11.96-8.32,4.89-1.93,10.56-2.91,17.01-2.91,4.48,0,8.78.52,12.9,1.57,4.11,1.05,7.77,2.69,10.98,4.89,3.2,2.21,5.73,5.03,7.59,8.48,1.86,3.46,2.79,7.58,2.79,12.38v54.46h-21.23v-11.2h-.64c-1.29,2.53-3.02,4.76-5.2,6.67-2.17,1.91-4.78,3.38-7.83,4.46-3.04,1.07-6.57,1.61-10.57,1.61Zm4.26-92.68l-16.03-23.9h20.65l11.19,23.9h-15.82Zm2.16,77.22c3.29,0,6.2-.66,8.73-1.97,2.52-1.31,4.5-3.08,5.94-5.33,1.43-2.25,2.15-4.8,2.15-7.62v-8.58c-.7.46-1.65.88-2.87,1.23-1.2.38-2.57.72-4.07.99-1.51.3-3.01.58-4.52.8-1.51.24-2.88.44-4.1.6-2.64.4-4.92,1.01-6.89,1.85-1.96.84-3.48,1.97-4.57,3.38-1.08,1.43-1.63,3.18-1.63,5.29,0,3.04,1.11,5.37,3.33,6.96,2.23,1.59,5.06,2.39,8.5,2.39Z"/>
  </g>
  <path class="cls-1" d="m709.03,304.02h0c-1.08-12.24-2-24.5-3.32-36.71-.88-8.21-1.87-16.46-3.63-24.52-2.68-12.25-13.24-20.3-26-20.43-15.78-.16-31.46,1.4-47.02,3.8-57.42,8.88-109.35,30.85-155.71,65.91-10.35,7.83-10.26,7.84-12.61-4.87-8.73-47.2-33.39-83.87-73.25-110.41-3.52-2.34-7.34-4.22-11.03-6.31-8.44-4.69-15.78,0-15.78,0-7.43,3.29-12.83,8.97-17.9,15.08-41.06,49.61-58.36,106.29-50.53,170.37,5.46,44.71,23.67,83.7,53.46,117.31,3.03,3.42,4.01,6.38,2.77,10.85-3.01,10.91-4.94,22.08-6.25,33.31-.97,8.23,2.97,13.51,9.72,14.1,7.14.62,11.55-3.38,12.74-11.53.49-3.4.91-6.81,1.54-10.18,17.82-94.2,67.44-166.88,148.47-217.83,47.4-29.81,99.68-44.49,155.47-46.98,9.05-.4,9.79.05,11.08,8.68,5.39,35.9,6.85,71.98,4.09,108.18-.89,11.66-1.51,23.52-4.19,34.83-15.78,66.46-53.74,116.44-113.85,148.91-40.21,21.72-83.52,29.58-128.96,24.93-9.26-.95-18.66-1.93-28.2-5.44,1.91-1.44,3.15-2.46,4.46-3.35,49.59-33.85,92.05-75.05,127.37-123.6,10.36-14.24,19.94-29,28.76-44.23,4.15-7.17,2.76-13.83-3.4-17.31-5.77-3.26-11.89-1.03-16.22,5.94-1.07,1.72-2.08,3.47-3.13,5.19-49.65,81.72-117.03,144.39-202.06,188.09-14.04,7.21-28.57,13.34-43.08,19.5-6.29,2.67-8.61,8.53-6.46,14.52,2.01,5.61,8.09,8.32,14.5,6.38,1.93-.59,3.79-1.4,5.67-2.15,21.06-8.41,41.45-18.25,61.09-29.57,3.86-2.23,7.14-2.5,11.36-1.21,38.52,11.83,77.72,14.82,117.35,7.14,71.01-13.75,126.34-51.2,165.17-112.2,15.8-24.82,26.68-51.57,31.82-80.38l.17,1.19c8.7-38.29,5.52-94.99,5.52-94.99Zm-277.64,26.05c-11.72,11.13-21.41,24.21-30.77,37.44h0s-3.05,2.66-3.05,2.66c-.24-9.32-.33-18.52-1.16-27.69-2.11-23.17-5.91-46.04-11.07-68.69-1.67-7.34-7.6-11.26-13.67-9.69-6.61,1.7-9.95,7.6-8.18,15.2,9.68,41.39,12.9,83.35,11.37,125.76-.15,4.14-1.03,7.98-2.83,11.67-4.61,9.46-8.67,19.14-12.22,29.05-.6,1.67-.59,4.24-2.38,4.68-2.3.57-3.23-2.08-4.37-3.58-17.88-23.52-30.52-49.56-36.22-78.62-12.64-64.35,2.95-121.25,45.62-170.93,4.16-4.85,7.55-5.14,12.79-1.59,36.57,24.74,58.28,58.63,64.13,102.53.32,2.4.6,4.81.99,7.19,1.6,9.9-1.46,17.48-8.98,24.63Z"/>
</svg>