<?xml version="1.0" encoding="UTF-8"?>
<svg id="Livello_1" data-name="Livello 1" xmlns="http://www.w3.org/2000/svg" viewBox="0 0 1000 1000">
  <defs>
    <style>
      .cls-1 {
        fill: #000000;
        stroke-width: 1px;
      }
    </style>
  </defs>
  <g>
    <path class="cls-1" d="m214.99,627.37l26.02,81.78h1l26.07-81.78h25.23l-37.11,107.65h-29.33l-37.16-107.65h25.28Z"/>
    <path class="cls-1" d="m317.06,643.87c-3.33,0-6.18-1.09-8.55-3.32-2.37-2.23-3.54-4.89-3.54-8.02s1.17-5.73,3.54-7.96,5.21-3.34,8.55-3.34,6.18,1.11,8.54,3.34c2.37,2.23,3.55,4.88,3.55,7.96s-1.18,5.79-3.55,8.02c-2.36,2.23-5.21,3.32-8.54,3.32Zm-11.25,91.15v-80.73h22.4v80.73h-22.4Z"/>
    <path class="cls-1" d="m413.25,677.32l-20.49,1.25c-.36-1.75-1.1-3.34-2.27-4.76-1.15-1.41-2.67-2.57-4.55-3.42-1.87-.86-4.11-1.29-6.7-1.29-3.47,0-6.4.74-8.78,2.19-2.39,1.45-3.58,3.38-3.58,5.81,0,1.93.78,3.56,2.32,4.89,1.54,1.33,4.19,2.39,7.94,3.2l14.61,2.94c7.85,1.61,13.7,4.2,17.56,7.78,3.85,3.56,5.78,8.26,5.78,14.09,0,5.29-1.55,9.93-4.66,13.93-3.09,3.98-7.34,7.1-12.71,9.33-5.38,2.21-11.57,3.32-18.58,3.32-10.69,0-19.19-2.23-25.52-6.71-6.33-4.46-10.03-10.55-11.11-18.27l22.03-1.15c.66,3.26,2.27,5.75,4.84,7.44,2.56,1.71,5.83,2.55,9.83,2.55s7.08-.76,9.48-2.29c2.4-1.51,3.62-3.48,3.65-5.91-.03-2.03-.89-3.7-2.58-5.01-1.68-1.31-4.27-2.33-7.77-3.02l-13.99-2.79c-7.88-1.57-13.74-4.32-17.58-8.2-3.84-3.9-5.76-8.85-5.76-14.88,0-5.17,1.41-9.65,4.24-13.39,2.82-3.76,6.8-6.65,11.93-8.68,5.13-2.03,11.15-3.04,18.06-3.04,10.2,0,18.23,2.15,24.1,6.47,5.87,4.3,9.29,10.17,10.28,17.61Z"/>
    <path class="cls-1" d="m440.48,643.87c-3.33,0-6.18-1.09-8.55-3.32-2.37-2.23-3.54-4.89-3.54-8.02s1.17-5.73,3.54-7.96c2.37-2.23,5.21-3.34,8.55-3.34s6.18,1.11,8.54,3.34c2.37,2.23,3.55,4.88,3.55,7.96s-1.18,5.79-3.55,8.02c-2.36,2.23-5.21,3.32-8.54,3.32Zm-11.25,91.15v-80.73h22.4v80.73h-22.4Z"/>
    <path class="cls-1" d="m469.91,735.02v-107.65h22.4v40.47h.69c.98-2.17,2.41-4.4,4.28-6.65,1.88-2.27,4.33-4.16,7.36-5.67,3.03-1.53,6.81-2.29,11.32-2.29,5.89,0,11.32,1.53,16.3,4.6,4.97,3.06,8.95,7.66,11.94,13.83,2.97,6.15,4.47,13.85,4.47,23.1s-1.45,16.59-4.34,22.78c-2.9,6.19-6.82,10.86-11.78,14.03-4.95,3.16-10.5,4.76-16.63,4.76-4.35,0-8.03-.72-11.06-2.15-3.03-1.43-5.51-3.26-7.43-5.45-1.93-2.19-3.4-4.4-4.42-6.65h-1v12.93h-22.08Zm21.92-40.37c0,4.82.67,8.99,2,12.58,1.33,3.56,3.26,6.35,5.78,8.32,2.53,1.99,5.59,2.98,9.2,2.98s6.73-1.01,9.25-3.02c2.52-2.03,4.44-4.82,5.75-8.42,1.31-3.6,1.97-7.74,1.97-12.44s-.65-8.76-1.94-12.3c-1.29-3.54-3.2-6.31-5.73-8.3-2.52-2.01-5.62-3-9.3-3s-6.72.98-9.22,2.89c-2.51,1.93-4.43,4.68-5.76,8.22-1.33,3.52-2,7.7-2,12.5Z"/>
    <path class="cls-1" d="m574.77,643.87c-3.33,0-6.18-1.09-8.55-3.32s-3.54-4.89-3.54-8.02,1.17-5.73,3.54-7.96c2.37-2.23,5.21-3.34,8.55-3.34s6.18,1.11,8.54,3.34c2.37,2.23,3.55,4.88,3.55,7.96s-1.18,5.79-3.55,8.02c-2.36,2.23-5.21,3.32-8.54,3.32Zm-11.25,91.15v-80.73h22.4v80.73h-22.4Z"/>
    <path class="cls-1" d="m626.18,627.37v107.65h-22.4v-107.65h22.4Z"/>
    <path class="cls-1" d="m655.3,643.87c-3.33,0-6.18-1.09-8.55-3.32-2.37-2.23-3.54-4.89-3.54-8.02s1.17-5.73,3.54-7.96c2.37-2.23,5.21-3.34,8.55-3.34s6.18,1.11,8.54,3.34c2.37,2.23,3.55,4.88,3.55,7.96s-1.18,5.79-3.55,8.02c-2.36,2.23-5.21,3.32-8.54,3.32Zm-11.25,91.15v-80.73h22.4v80.73h-22.4Z"/>
    <path class="cls-1" d="m727.25,654.3v16.81h-48.62v-16.81h48.62Zm-37.59-19.36h22.4v75.27c0,2.07.31,3.68.95,4.82.63,1.13,1.51,1.93,2.66,2.39,1.13.46,2.46.68,3.96.68,1.05,0,2.11-.08,3.15-.28,1.05-.2,1.86-.34,2.42-.46l3.52,16.67c-1.11.34-2.7.76-4.73,1.23s-4.51.76-7.41.86c-5.39.22-10.12-.5-14.17-2.15-4.05-1.65-7.19-4.2-9.43-7.68-2.25-3.46-3.35-7.84-3.31-13.13v-78.22Z"/>
    <path class="cls-1" d="m764.83,736.55c-5.15,0-9.74-.92-13.77-2.71-4.03-1.81-7.21-4.5-9.54-8.06-2.33-3.54-3.49-8-3.49-13.31,0-4.5.82-8.26,2.47-11.3s3.89-5.51,6.73-7.36c2.85-1.85,6.08-3.26,9.7-4.2,3.63-.96,7.44-1.61,11.43-2.01,4.7-.48,8.48-.96,11.35-1.39s4.96-1.09,6.26-1.97,1.95-2.17,1.95-3.88v-.32c0-3.32-1.04-5.91-3.13-7.72-2.08-1.83-5.03-2.75-8.85-2.75-4.03,0-7.23.9-9.62,2.67-2.38,1.77-3.96,3.98-4.73,6.65l-20.71-1.69c1.05-4.89,3.11-9.15,6.2-12.73,3.08-3.6,7.07-6.37,11.96-8.32,4.89-1.93,10.56-2.91,17.01-2.91,4.48,0,8.78.52,12.9,1.57,4.11,1.05,7.77,2.69,10.98,4.89,3.2,2.21,5.73,5.03,7.59,8.48,1.86,3.46,2.79,7.58,2.79,12.38v54.46h-21.23v-11.2h-.64c-1.29,2.53-3.02,4.76-5.2,6.67-2.17,1.91-4.78,3.38-7.83,4.46-3.04,1.07-6.57,1.61-10.57,1.61Zm4.26-92.68l-16.03-23.9h20.65l11.19,23.9h-15.82Zm2.16,77.22c3.29,0,6.2-.66,8.73-1.97,2.52-1.31,4.5-3.08,5.94-5.33,1.43-2.25,2.15-4.8,2.15-7.62v-8.58c-.7.46-1.65.88-2.87,1.23-1.2.38-2.57.72-4.07.99-1.51.3-3.01.58-4.52.8-1.51.24-2.88.44-4.1.6-2.64.4-4.92,1.01-6.89,1.85-1.96.84-3.48,1.97-4.57,3.38-1.08,1.43-1.63,3.18-1.63,5.29,0,3.04,1.11,5.37,3.33,6.96,2.23,1.59,5.06,2.39,8.5,2.39Z"/>
  </g>
  <g>
    <path class="cls-1" d="m500.73,314.09c-45.59-.28-82.81,36.78-83.09,82.72-.28,45.55,36.8,82.74,82.78,83.03,45.57.29,82.82-36.79,83.1-82.72.28-45.54-36.82-82.75-82.79-83.03Zm10.75,136.85c-38.99,7.33-72.06-25.55-64.99-64.53,3.92-21.61,21.53-39.32,43.12-43.41,39.02-7.39,72.13,25.52,65.04,64.54-3.93,21.62-21.56,39.34-43.16,43.4Z"/>
    <path class="cls-1" d="m696.96,375.66c-32.07-37.98-68.93-70.12-113.94-92.12-32.4-15.83-66.47-23.22-102.55-18.95-28.54,3.38-54.84,13.61-79.51,27.98-41.82,24.35-76.5,56.81-106.28,94.73-4.62,5.88-4.27,14.27.6,19.95,11.09,12.93,22.02,26.07,33.98,38.17,28.78,29.1,61.21,53.29,99.07,69.57,29.59,12.72,60.42,18.17,92.54,14.3,28.53-3.44,54.75-13.77,79.5-28.04,30.61-17.65,57.39-40.11,81.43-65.85,6.42-6.88,16.72-20.14,23.55-29.15,4.24-5.58,4.36-13.2.32-18.93-3.06-4.33-6.48-9.06-8.69-11.67Zm-42.89,48.24c-22.96,23.15-48.18,43.42-77.3,58.44-26.3,13.57-53.96,21.79-83.92,20.16-18.96-1.03-37.01-6.05-54.35-13.56-35.71-15.46-65.65-39.06-92.76-66.5-7.94-8.04-15.39-16.57-23.86-25.72,11.45-11.94,22.12-23.79,33.58-34.82,20.5-19.74,43-36.91,68.39-50.04,26.41-13.66,54.15-22.04,84.26-20.45,19.1,1.01,37.27,6.06,54.74,13.65,35.82,15.56,65.85,39.26,93,66.86,7.82,7.95,15.17,16.36,23.19,25.05-8.51,9.21-16.46,18.35-24.97,26.93Z"/>
  </g>
</svg>